
            <svg xmlns="http://www.w3.org/2000/svg">
                <filter id="grayscale">
                    <feColorMatrix type="saturate" values="0"/>
                </filter>
                <g filter="url(#grayscale)">
                    <svg xmlns="http://www.w3.org/2000/svg" viewBox="120.76500274658204 143.33999633789062 333.4700012207031 288.3199996948242"> <svg xmlns="http://www.w3.org/2000/svg" xmlns:xlink="http://www.w3.org/1999/xlink" version="1.1" id="Calque_1" x="242.20000762939452" y="213.33999633789062" viewBox="861.75 839.760009765625 277 320.97998046875" xml:space="preserve" height="104.989990234375" width="90.60447546275206" preserveAspectRatio="xMinYMin" enable-background="new 0 0 2000 2000" style="overflow: visible;"><linearGradient id="SVGID_1_" gradientUnits="userSpaceOnUse" x1="861.4247" y1="904.8593" x2="1068.9247" y2="944.8593" style=""><stop offset="0" style="stop-color: #491770;"></stop><stop offset="1" style="stop-color: #DD64DB;"></stop></linearGradient><polygon class="st0" points="1138.75,920 1138.75,1006.31 1127.61,999.86 1113.75,991.83 1102.67,985.41 1087.75,976.76     1026.67,941.38 1003.91,928.19 977.52,943.48 952.58,957.92 927.64,943.48 952.58,929.03 978.97,913.74 1003.91,899.29     1028.84,913.74 1051.61,926.93 1087.75,947.87 1113.75,962.93 1113.75,905.51   " style="fill: #000000; fill-opacity: 1;"></polygon><linearGradient id="SVGID_2_" gradientUnits="userSpaceOnUse" x1="859.5793" y1="914.4324" x2="1067.0793" y2="954.4324" style=""><stop offset="0" style="stop-color: #491770;"></stop><stop offset="1" style="stop-color: #DD64DB;"></stop></linearGradient><polygon class="st1" points="1087.75,890.45 1087.75,919.34 1076.23,912.67 1053.46,899.48 1028.52,885.03 1000.26,868.65     975.65,882.92 950.71,897.36 924.32,912.65 911.75,919.94 899.38,927.1 886.75,934.42 886.75,947.99 903.31,957.58 911.75,962.47     928.24,972.03 951.01,985.22 1027,1029.25 1002.07,1043.69 1002.06,1043.69 926.07,999.66 911.75,991.37 903.31,986.47     903.3,986.47 886.75,976.88 878.37,972.03 861.75,962.4 861.75,920.01 874.45,912.65 886.75,905.53 899.38,898.21 911.75,891.04     925.77,882.92 950.71,868.47 975.33,854.21 1000.26,839.76 1025.2,854.21 1053.46,870.58 1078.39,885.03   " style="fill: #000000; fill-opacity: 1;"></polygon><linearGradient id="SVGID_3_" gradientUnits="userSpaceOnUse" x1="1115.2717" y1="1095.6367" x2="857.7717" y2="1013.1367" style=""><stop offset="0" style="stop-color: #23559C;"></stop><stop offset="0.8287" style="stop-color: #7EDBCA;"></stop><stop offset="1" style="stop-color: #91F7D4;"></stop></linearGradient><polygon class="st2" points="1138.75,1036.89 1138.75,1080.19 1113.75,1094.67 1087.75,1109.74 1074.24,1117.57 1049.3,1132.01     1024.66,1146.29 1024.65,1146.29 999.72,1160.74 974.78,1146.29 949.76,1131.8 911.75,1109.77 911.75,1080.88 924.82,1088.45     949.76,1102.9 949.77,1102.9 974.7,1117.35 999.72,1131.85 1024.36,1117.57 1049.3,1103.12 1076.96,1087.09 1087.75,1080.84     1113.75,1065.78 1113.75,1051.31 1101.22,1044.05 1087.75,1036.24 1076.28,1029.6 1051.34,1015.15 975.35,971.12 1000.28,956.67     1076.28,1000.7 1087.75,1007.35 1101.22,1015.15 1113.75,1022.41 1126.16,1029.6   " style="fill: #000000; fill-opacity: 1;"></polygon><linearGradient id="SVGID_4_" gradientUnits="userSpaceOnUse" x1="1109.2833" y1="1114.3279" x2="851.7833" y2="1031.8279" style=""><stop offset="0" style="stop-color: #23559C;"></stop><stop offset="1" style="stop-color: #91F7D4;"></stop></linearGradient><polygon class="st3" points="1076.88,1058.15 1051.95,1072.6 1051.94,1072.6 1024.28,1088.62 999.35,1103.07 949.47,1074.17     911.75,1052.32 886.75,1037.83 886.75,1095.29 861.75,1080.8 861.75,994.45 875.64,1002.5 886.75,1008.94 898.41,1015.69     911.75,1023.42 974.4,1059.72 999.34,1074.18 999.35,1074.18 1027.01,1058.15 1051.95,1043.7   " style="fill: #000000; fill-opacity: 1;"></polygon></svg> <svg y="339.3399963378906" viewBox="1.0800000429153442 8 193.47000122070312 22.31999969482422" x="190.76500274658204" height="22.31999969482422" width="193.47000122070312" xmlns="http://www.w3.org/2000/svg" style="overflow: visible;"><g fill="#000000" fill-opacity="1" style=""><path d="M9.64 30.32Q7.13 30.32 4.79 29.61Q2.45 28.89 1.08 27.71L1.08 27.71L2.48 24.58Q3.81 25.64 5.75 26.30Q7.69 26.97 9.64 26.97L9.64 26.97Q12.06 26.97 13.25 26.20Q14.45 25.42 14.45 24.15L14.45 24.15Q14.45 23.22 13.78 22.61Q13.11 22.01 12.09 21.67Q11.07 21.33 9.30 20.89L9.30 20.89Q6.82 20.30 5.29 19.72Q3.75 19.13 2.65 17.87Q1.55 16.62 1.55 14.48L1.55 14.48Q1.55 12.68 2.53 11.21Q3.50 9.73 5.47 8.87Q7.44 8.00 10.29 8.00L10.29 8.00Q12.28 8.00 14.20 8.49Q16.12 8.99 17.52 9.92L17.52 9.92L16.24 13.05Q14.82 12.21 13.27 11.78Q11.72 11.35 10.26 11.35L10.26 11.35Q7.87 11.35 6.71 12.15Q5.55 12.96 5.55 14.29L5.55 14.29Q5.55 15.22 6.22 15.81Q6.88 16.40 7.91 16.74Q8.93 17.08 10.70 17.52L10.70 17.52Q13.11 18.07 14.66 18.68Q16.21 19.28 17.31 20.52Q18.41 21.76 18.41 23.87L18.41 23.87Q18.41 25.67 17.44 27.13Q16.46 28.58 14.48 29.45Q12.49 30.32 9.64 30.32L9.64 30.32ZM33.44 26.63L45.69 26.63L45.69 30.01L29.41 30.01L29.41 8.31L45.25 8.31L45.25 11.69L33.44 11.69L33.44 17.33L43.92 17.33L43.92 20.65L33.44 20.65L33.44 26.63ZM67.13 30.32Q63.85 30.32 61.20 28.88Q58.55 27.43 57.04 24.89Q55.54 22.35 55.54 19.16L55.54 19.16Q55.54 15.96 57.06 13.42Q58.58 10.88 61.23 9.44Q63.88 8.00 67.16 8.00L67.16 8.00Q69.83 8.00 72.03 8.93Q74.23 9.86 75.75 11.63L75.75 11.63L73.15 14.07Q70.79 11.53 67.35 11.53L67.35 11.53Q65.12 11.53 63.35 12.51Q61.58 13.48 60.59 15.22Q59.60 16.96 59.60 19.16L59.60 19.16Q59.60 21.36 60.59 23.09Q61.58 24.83 63.35 25.81Q65.12 26.78 67.35 26.78L67.35 26.78Q70.79 26.78 73.15 24.21L73.15 24.21L75.75 26.69Q74.23 28.46 72.02 29.39Q69.80 30.32 67.13 30.32L67.13 30.32ZM95.80 30.32Q91.31 30.32 88.80 27.79Q86.29 25.27 86.29 20.55L86.29 20.55L86.29 8.31L90.32 8.31L90.32 20.40Q90.32 26.78 95.83 26.78L95.83 26.78Q101.32 26.78 101.32 20.40L101.32 20.40L101.32 8.31L105.29 8.31L105.29 20.55Q105.29 25.27 102.79 27.79Q100.30 30.32 95.80 30.32L95.80 30.32ZM136.47 30.01L132.13 30.01L127.70 23.65Q127.42 23.68 126.86 23.68L126.86 23.68L121.96 23.68L121.96 30.01L117.93 30.01L117.93 8.31L126.86 8.31Q129.68 8.31 131.77 9.24Q133.87 10.17 134.98 11.90Q136.10 13.64 136.10 16.03L136.10 16.03Q136.10 18.48 134.90 20.24Q133.71 22.01 131.48 22.88L131.48 22.88L136.47 30.01ZM132.04 16.03Q132.04 13.95 130.67 12.83Q129.31 11.72 126.67 11.72L126.67 11.72L121.96 11.72L121.96 20.37L126.67 20.37Q129.31 20.37 130.67 19.24Q132.04 18.10 132.04 16.03L132.04 16.03ZM156.92 30.32Q152.43 30.32 149.92 27.79Q147.41 25.27 147.41 20.55L147.41 20.55L147.41 8.31L151.44 8.31L151.44 20.40Q151.44 26.78 156.95 26.78L156.95 26.78Q162.44 26.78 162.44 20.40L162.44 20.40L162.44 8.31L166.41 8.31L166.41 20.55Q166.41 25.27 163.91 27.79Q161.42 30.32 156.92 30.32L156.92 30.32ZM185.78 30.32Q183.27 30.32 180.93 29.61Q178.59 28.89 177.22 27.71L177.22 27.71L178.62 24.58Q179.95 25.64 181.89 26.30Q183.82 26.97 185.78 26.97L185.78 26.97Q188.20 26.97 189.39 26.20Q190.58 25.42 190.58 24.15L190.58 24.15Q190.58 23.22 189.92 22.61Q189.25 22.01 188.23 21.67Q187.20 21.33 185.44 20.89L185.44 20.89Q182.96 20.30 181.42 19.72Q179.89 19.13 178.79 17.87Q177.69 16.62 177.69 14.48L177.69 14.48Q177.69 12.68 178.66 11.21Q179.64 9.73 181.61 8.87Q183.58 8.00 186.43 8.00L186.43 8.00Q188.41 8.00 190.34 8.49Q192.26 8.99 193.65 9.92L193.65 9.92L192.38 13.05Q190.96 12.21 189.41 11.78Q187.85 11.35 186.40 11.35L186.40 11.35Q184.01 11.35 182.85 12.15Q181.69 12.96 181.69 14.29L181.69 14.29Q181.69 15.22 182.35 15.81Q183.02 16.40 184.04 16.74Q185.06 17.08 186.83 17.52L186.83 17.52Q189.25 18.07 190.80 18.68Q192.35 19.28 193.45 20.52Q194.55 21.76 194.55 23.87L194.55 23.87Q194.55 25.67 193.57 27.13Q192.60 28.58 190.61 29.45Q188.63 30.32 185.78 30.32L185.78 30.32Z" transform="translate(0, 0)"></path></g></svg></svg>
                </g>
            </svg>
        