<svg id="Layer_1" data-name="Layer 1" xmlns="http://www.w3.org/2000/svg" viewBox="0 0 2000 2000"><defs><style>.cls-1{fill:#e06b20;}.cls-2{fill:#444;}.cls-3{fill:#b8591d;}.cls-4{fill:#643a18;}.cls-5{fill:#6c511b;}.cls-6{fill:#d1621d;}</style></defs><title>fiverr1</title><path class="cls-1" d="M1507.75,306.73v1386.5l-.57.42c-1.5,1.1-3,2.2-4.52,3.28-2.07,1.5-4.16,3-6.25,4.47-1.5,1.07-3,2.14-4.52,3.19l-2.77,1.93-4.68,3.22-4.69,3.19-.72.49c-1.09.73-2.18,1.46-3.28,2.18l-4.35,2.89-3.32,2.17-.52.34-4.05,2.61q-3.77,2.41-7.55,4.79-2.76,1.74-5.55,3.45c-1.23.76-2.46,1.52-3.7,2.27l-4,2.4V263.43c2.83,1.71,5.65,3.42,8.45,5.16q3.18,2,6.34,4l3.16,2,1.57,1,1.58,1q2.46,1.58,4.91,3.18,2,1.3,4,2.64l3.19,2.11q2.22,1.47,4.43,3,2,1.32,3.91,2.66l1.87,1.27,1.44,1h0c1.43,1,2.85,2,4.27,3s2.67,1.86,4,2.8Q1501.85,302.4,1507.75,306.73Z"/><path class="cls-1" d="M1616.75,401.72V1598.24q-2,2.05-4,4.09c-.72.74-1.44,1.47-2.17,2.2l-1.85,1.86c-1,1-2,2-3,3s-2,2-3,3l-1,1-3.87,3.77c-1.81,1.76-3.64,3.52-5.47,5.26l-4.15,3.92q-2.09,2-4.18,3.9t-4.2,3.87l-.32.3-3.91,3.54q-2.12,1.92-4.25,3.82l-4.25,3.76a1.14,1.14,0,0,1-.17.15l-4.48,3.91-1,.84c-1,.88-2,1.76-3.05,2.62l-1.45,1.24-2.9,2.46-4.38,3.67V339.6q4.39,3.63,8.73,7.36l4.33,3.73q3,2.58,5.94,5.2c1.54,1.35,3.07,2.72,4.59,4.08l.41.37c1,.91,2,1.84,3.06,2.76l.94.86c1.44,1.3,2.87,2.62,4.3,3.94.82.74,1.63,1.49,2.44,2.25l2.51,2.34,2.49,2.34,4.22,4q1.68,1.59,3.33,3.2c.56.53,1.11,1.07,1.66,1.61l.79.77,2.85,2.79,1.31,1.29,4.1,4.07.33.33c1.47,1.47,2.93,2.94,4.39,4.43l3.28,3.36.49.5Z"/><path class="cls-1" d="M1723.75,536.66v926.66l-1.26,1.94c-.57.9-1.15,1.79-1.74,2.68l-.55.85-1.2,1.84-.51.77c-.58.88-1.15,1.76-1.74,2.64l-1.16,1.74c-.61.92-1.22,1.84-1.84,2.75-.4.61-.81,1.21-1.22,1.82q-1.38,2.05-2.78,4.09c-.63.93-1.27,1.86-1.91,2.78q-1.61,2.33-3.22,4.63c-.73,1-1.46,2.09-2.21,3.13l-1.22,1.74-.41.58c-.4.56-.79,1.12-1.2,1.68-1,1.36-1.94,2.71-2.92,4.06q-2,2.77-4,5.54-1,1.38-2,2.76c-1.61,2.18-3.23,4.35-4.88,6.51h0l0,0a1.44,1.44,0,0,1-.16.21c-.44.59-.88,1.18-1.33,1.76-.77,1-1.54,2-2.32,3q-3,3.93-6.07,7.81l-2,2.58-3.66,4.58-.34.42c-1.19,1.48-2.38,2.95-3.59,4.42q-3.67,4.52-7.41,9V448.27c.4.47.8.94,1.19,1.42s.55.65.81,1c.8,1,1.59,1.91,2.38,2.86l1.62,2,1.4,1.71,2.32,2.85q5.2,6.42,10.28,13l.19.25,1.78,2.3,2,2.64q2,2.63,4,5.27c1.55,2.06,3.1,4.13,4.63,6.21q1.38,1.86,2.74,3.73l.63.86,1.14,1.56,1,1.32,1.39,2c.82,1.13,1.62,2.26,2.43,3.39q1.5,2.1,3,4.21t3,4.22q2.94,4.23,5.82,8.5l2.94,4.37Q1719.61,530.19,1723.75,536.66Z"/><path class="cls-1" d="M1859.25,1000c0,1.88,0,3.75,0,5.62q0,4.16-.09,8.29c0,1.23,0,2.45-.07,3.68s-.05,2.45-.08,3.67c-.05,2.18-.11,4.37-.18,6.55,0,1.32-.09,2.64-.14,4-.06,1.75-.13,3.49-.21,5.24q-.06,1.69-.15,3.39c-.08,1.71-.16,3.42-.25,5.13q-.17,3.22-.36,6.43c0,.6-.07,1.21-.11,1.81-.14,2.22-.28,4.44-.44,6.66-.12,1.81-.25,3.61-.39,5.41-.06.83-.13,1.67-.19,2.5-.26,3.28-.53,6.54-.83,9.79-.19,2.14-.39,4.29-.6,6.43s-.43,4.27-.65,6.41-.44,4.1-.67,6.15q-.51,4.59-1.09,9.17c-.21,1.72-.42,3.43-.64,5.14l-.57,4.32c-.21,1.55-.42,3.09-.64,4.63-.13,1-.27,2-.42,3-.19,1.32-.38,2.64-.58,4q-.42,2.82-.86,5.64t-.89,5.62c-.19,1.16-.37,2.31-.57,3.46-.33,2-.67,4-1,6s-.69,3.92-1,5.87q-.6,3.34-1.24,6.68-.54,2.9-1.11,5.77l-.3,1.55-1.14,5.66q-.58,2.82-1.18,5.64c-.44,2.07-.88,4.13-1.34,6.18s-.89,4-1.34,6-.92,4-1.39,6c-.5,2.16-1,4.31-1.54,6.45-.34,1.4-.69,2.79-1,4.18s-.63,2.52-1,3.78c-.36,1.42-.72,2.84-1.09,4.26-.26,1-.52,2-.79,3-.54,2.07-1.1,4.13-1.65,6.18q-.75,2.74-1.51,5.49c-.33,1.16-.65,2.32-1,3.49-.06.2-.11.4-.17.6-.44,1.58-.9,3.16-1.35,4.72s-.89,3-1.34,4.56-1,3.29-1.47,4.92-1,3.28-1.5,4.91c-.39,1.27-.79,2.55-1.19,3.82s-.75,2.38-1.13,3.55a.14.14,0,0,1,0,.07l-.06.19-.84,2.62c-.64,2-1.3,4-2,6-.26.8-.52,1.6-.79,2.39q-1.21,3.65-2.47,7.26c-.66,1.94-1.34,3.88-2,5.81q-1.43,4-2.88,8c-.48,1.34-1,2.68-1.47,4q-1.42,3.88-2.9,7.74-1,2.61-2,5.2-2.37,6.12-4.84,12.19c-.53,1.32-1.07,2.63-1.61,3.94-.33.82-.67,1.64-1,2.45-.57,1.38-1.14,2.74-1.72,4.11-.4,1-.8,1.9-1.21,2.85s-.81,1.9-1.22,2.85h0c-.4.94-.8,1.87-1.21,2.81-.92,2.12-1.85,4.25-2.79,6.36-.31.71-.63,1.41-.94,2.11q-.59,1.32-1.2,2.64c-.57,1.29-1.15,2.57-1.74,3.85a1,1,0,0,1-.07.15c-.19.42-.37.83-.57,1.25s-.44.94-.65,1.41c-.93,2-1.88,4.05-2.83,6.07-.37.77-.73,1.55-1.1,2.32-.93,2-1.87,3.92-2.82,5.88q-1.26,2.63-2.55,5.23c-.49,1-1,2-1.49,3l-1.26,2.52q-1.37,2.76-2.78,5.5V609.79q1.39,2.75,2.78,5.5t2.75,5.52q1.32,2.69,2.63,5.39a3.26,3.26,0,0,1,.18.38q1.29,2.67,2.56,5.35,2.67,5.58,5.22,11.2t5,11.2l1.12,2.56c.1.22.19.45.29.67.47,1.08.94,2.16,1.4,3.24,0,0,0,0,0,0,.46,1,.91,2.11,1.36,3.17q1.59,3.75,3.15,7.5,1.19,2.87,2.35,5.74l2.31,5.76q1.14,2.88,2.27,5.78t2.23,5.8q1.11,2.91,2.19,5.82t2.15,5.84l.15.41c.68,1.88,1.35,3.77,2,5.65s1.33,3.78,2,5.68q2.05,5.88,4,11.81,1,3,1.94,5.94t1.9,6q.93,3,1.85,6,1.11,3.59,2.17,7.18.72,2.41,1.42,4.83l.27.92q.73,2.55,1.46,5.11c.53,1.85,1,3.7,1.55,5.56q.62,2.21,1.2,4.41c.09.32.18.64.26,1,.21.76.41,1.52.61,2.28s.49,1.83.72,2.74c.39,1.48.78,3,1.16,4.47s.77,3,1.16,4.56c.46,1.84.92,3.69,1.36,5.54s.93,3.82,1.38,5.73.91,3.9,1.35,5.85q.6,2.59,1.17,5.19c0,.11,0,.22.07.33q.63,2.8,1.23,5.63a.32.32,0,0,1,0,.14c.3,1.38.59,2.77.88,4.16.18.82.35,1.64.51,2.45q.58,2.8,1.14,5.63.62,3.06,1.2,6.14c.27,1.41.54,2.83.8,4.24s.52,2.79.77,4.19c.42,2.32.83,4.63,1.23,7q.5,2.82,1,5.65c0,.15.05.29.07.44.24,1.44.47,2.88.7,4.33s.51,3.18.75,4.77c.3,1.93.59,3.87.88,5.8q.63,4.27,1.21,8.58c.19,1.38.38,2.77.56,4.16s.36,2.79.54,4.18c.13,1,.26,2,.38,3,.06.51.13,1,.19,1.54.12,1,.22,1.93.34,2.89q.45,3.72.85,7.46l.42,4q.55,5.16,1,10.35.28,3,.54,6,.33,3.81.61,7.63.14,1.58.24,3.15c.09,1.29.19,2.59.27,3.88s.19,2.72.27,4.07c.07,1,.13,2.09.19,3.13.11,1.76.21,3.52.3,5.29.05.75.08,1.5.12,2.24l.15,3c0,.17,0,.35,0,.52.06,1.29.12,2.57.17,3.86.08,1.65.15,3.31.2,5,.06,1.48.11,3,.15,4.45,0,1.29.09,2.57.12,3.86q.26,9.09.31,18.22C1859.24,996.17,1859.25,998.08,1859.25,1000Z"/><path class="cls-1" d="M1400.75,239.71V1760.24q-2.55,1.35-5.12,2.68-7.68,4-15.45,7.83c-2.31,1.14-4.61,2.27-6.93,3.38h0l-.87.42-2.61,1.25-.49.23c-1.36.65-2.71,1.3-4.08,1.93q-3.6,1.7-7.22,3.36-7.24,3.33-14.55,6.51-3.54,1.55-7.09,3.06-2.94,1.26-5.91,2.49c-1.23.52-2.45,1-3.68,1.52l-.79.33-3.21,1.31-2.17.88-4.31,1.72-1.89.74c-1.36.54-2.71,1.07-4.08,1.59l-.69.27-1.6.62-4.6,1.75-3,1.14q-2.55,1-5.1,1.89-5.52,2-11.09,4l-6.21,2.15-5.43,1.84q-3.31,1.11-6.66,2.19t-6.68,2.14q-2.92.93-5.87,1.83-7.74,2.4-15.53,4.63l-5.54,1.57-7.41,2q-3.7,1-7.44,2-4.42,1.16-8.86,2.25-3,.77-6.09,1.5l-3.16.76-5,1.16-4.7,1.07q-3.84.87-7.7,1.7-2.74.6-5.51,1.17l-4.94,1a241,241,0,0,0,23.77-12.27,0,0,0,0,1,0,0l0,0q38.73-18.67,66.35-46.5,40.13-40.38,61.1-99.5,2.1-5.91,4-12a372.36,372.36,0,0,0,9.87-39c.31-1.58.62-3.17.92-4.77q3.16-17.06,5.11-35.31c.19-1.7.36-3.4.53-5.12h0q2-20.84,2.44-43.21c0-1.76.07-3.52.08-5.29,0-2.44.05-4.9.05-7.37V1389q0-12.9-.35-25.46c-.05-1.79-.1-3.58-.17-5.36-.12-3.74-.27-7.45-.45-11.15h0q-.14-3-.31-6-1.47-27.41-4.72-53.15-1.74-13.91-4-27.33A561.88,561.88,0,0,0,1317.9,1185c-.66-2.16-1.35-4.3-2.06-6.44h0q-1.61-4.92-3.31-9.76-2.19-6.21-4.45-12.23-1.61-4.26-3.24-8.41c-.25-.64-.5-1.28-.76-1.92l-.84-2.09a449.5,449.5,0,0,0-31.8-64.65q-1.06-1.76-2.13-3.48a320.68,320.68,0,0,0-18.56-26.89q-2-2.58-4-5.08-1.5-1.84-3-3.65-2-2.37-4-4.67-5.55-6.33-11.32-12.09l-3.68-3.65q-2-2-4-4-3.63-3.58-7.31-7.17l-2.87-2.79q-8.81-8.54-17.82-17c-1.33-1.27-2.66-2.52-4-3.78q-15.37-14.43-31.34-28.75l-3-2.68q-5.8-5.18-11.68-10.35l-4-3.51q-9.57-8.37-19.33-16.71l-3.57-3-3.06-2.59-5-4.26-4-3.35q-38.67-32.43-74-59.34l-4-3q-7.75-5.88-15.35-11.49-10.46-7.7-20.15-16.41a280.1,280.1,0,0,1-33.81-36.34q-1.79-2.27-3.52-4.6A325.46,325.46,0,0,1,928,740.2h0c-.59-1.06-1.17-2.12-1.75-3.2q-1.09-2-2.15-4.09v-.1q-24.87-48.24-29.82-108.69c-.17-2-.32-4-.45-6.05h0q-.8-12.26-.8-25V477.33q0-61.21,32.27-87.22c1-.85,2.11-1.66,3.2-2.43a83,83,0,0,1,27.25-12.61c1.48-.4,3-.77,4.51-1.11a138.84,138.84,0,0,1,29.94-3.08h.42q28.67,0,49.58,8.52c1.36.54,2.69,1.12,4,1.73q2.2,1,4.32,2.15c1.24.66,2.45,1.34,3.64,2.07a77.93,77.93,0,0,1,21.54,18.88c1.4,1.77,2.74,3.6,4,5.51a92,92,0,0,1,7.66,14.12c.58,1.31,1.13,2.65,1.66,4a118.22,118.22,0,0,1,4.8,15.41c.58,2.35,1.1,4.74,1.56,7.2h0a179.64,179.64,0,0,1,2.84,24.51c.1,1.84.17,3.7.21,5.59.06,2.11.09,4.24.09,6.41V711.25h245V479.35q0-6.82-.14-13.52,0-2.67-.12-5.31-.6-21.07-2.56-40.81c-.15-1.56-.31-3.1-.48-4.64q-2.55-23.59-7.09-45.23-2.33-11.18-5.2-21.83-1.52-5.68-3.21-11.22h0q-1.84-6.12-3.89-12A303.62,303.62,0,0,0,1297,275.32c-.4-.72-.79-1.43-1.2-2.14a294.3,294.3,0,0,0-20.09-31.09c-1.31-1.79-2.65-3.55-4-5.29-26.37-33.93-58.83-59.57-96.45-78.17l3,.62,4.21.9c2.8.61,5.61,1.23,8.4,1.86q10.59,2.4,21.09,5.07l3.91,1,4.51,1.18c2.06.54,4.11,1.1,6.17,1.66l3.68,1c3.38.94,6.75,1.89,10.11,2.88q2.67.77,5.33,1.56l3.09.93,4.06,1.24,4.07,1.26,5.06,1.6q3.06,1,6.12,2c1.22.39,2.43.8,3.65,1.21l.33.11,3.67,1.23,1.36.46q4.16,1.41,8.29,2.87,3.1,1.1,6.18,2.2l4.93,1.8c2,.74,4,1.49,6,2.25l4.72,1.79q5.37,2.05,10.7,4.18l6.67,2.69c1.31.53,2.61,1.07,3.9,1.61l3.89,1.62c.74.31,1.49.62,2.22.94l2.22.94,3.32,1.42q3.2,1.38,6.38,2.79l5.18,2.3,3.82,1.73.18.08,3.35,1.54,3.71,1.72,4.77,2.24,3.9,1.86,6.41,3.1q4,2,8,4,3.45,1.74,6.9,3.52l1.79.92Q1397.65,238.08,1400.75,239.71Z"/><path class="cls-2" d="M1100.73,1386.56v136.06q0,108.87-105.9,108.87c-1.54,0-3.07,0-4.58-.06q-109.65-2.34-109.63-118.48V1290.79H639.75V1522q0,176.63,83.06,261.28,27.29,27.83,65.54,46.5,5,3,10.47,5.74l-1-.25-.56-.14q-4.69-1.14-9.36-2.32c-1.71-.44-3.41-.87-5.11-1.32l-5.1-1.34-5.09-1.38q-5.09-1.4-10.14-2.84c-1.69-.49-3.37-1-5-1.47q-5-1.48-10.06-3c-1.67-.52-3.34-1-5-1.56l-4.6-1.45-1.16-.38-4.22-1.37q-5-1.63-9.93-3.32l-5.51-1.9q-7.08-2.48-14.12-5.06l-.18-.07-4.78-1.78-4.87-1.85-4.86-1.88-4.85-1.9q-4.83-1.92-9.65-3.9l-4.8-2-4.79-2c-2.39-1-4.77-2-7.15-3.08q-7.14-3.12-14.21-6.35c-2.35-1.08-4.71-2.17-7-3.27q-7-3.3-14-6.72l-4.64-2.3-4.62-2.32q-6.91-3.51-13.76-7.13-2.28-1.2-4.56-2.43l-4.54-2.45q-4.66-2.55-9.3-5.14c-2.9-1.64-5.8-3.28-8.69-5l-4.45-2.58q-4.46-2.61-8.86-5.25l-4.41-2.67-4.38-2.69q-4.38-2.7-8.73-5.45T532,1720.7l-4.3-2.81L523.4,1715q-4.28-2.85-8.51-5.75-10.44-7.17-20.68-14.62l-.27-.2q-4-3-8-5.94-6.8-5.09-13.49-10.3l-3-2.34q-24.3-19.09-47.16-39.88-1.91-1.73-3.8-3.48t-3.79-3.5q-3.6-3.36-7.17-6.76t-7.37-7.1c-.9-.88-1.8-1.75-2.69-2.64q-6-5.85-11.8-11.83l-3.57-3.67c-1.18-1.23-2.37-2.46-3.54-3.69q-17.69-18.51-34.25-38c-1.06-1.25-2.11-2.49-3.16-3.75q-8.29-9.9-16.3-20.05l-2.32-3-1.66-2.13-3.05-3.94q-9-11.73-17.59-23.78l-3-4.18q-1.48-2.1-2.95-4.21l-2.43-3.52c-1.14-1.64-2.26-3.29-3.38-4.94l-2.87-4.26q-1.44-2.13-2.85-4.28t-2.82-4.29l-2.69-4.13a1.66,1.66,0,0,0-.18-.28l-2.6-4.07-1.77-2.8c-.71-1.12-1.41-2.24-2.11-3.37q-1.28-2-2.53-4.07l-1.92-3.13q-1.3-2.14-2.6-4.29l-2.37-4-1.95-3.3c-.63-1.06-1.25-2.11-1.86-3.17q-1.56-2.67-3.1-5.35l-1.89-3.31q-3.57-6.3-7-12.66-1.11-2-2.21-4.08-2.45-4.55-4.84-9.12c-.72-1.37-1.44-2.75-2.15-4.13q-1.3-2.52-2.59-5.05-1.17-2.31-2.33-4.62t-2.3-4.63q-1.05-2.12-2.08-4.24c-.82-1.68-1.63-3.38-2.44-5.07s-1.49-3.12-2.22-4.68q-3.42-7.25-6.69-14.57c-.65-1.43-1.28-2.86-1.92-4.3s-1.39-3.17-2.08-4.75-1.37-3.18-2.05-4.77c-.6-1.4-1.19-2.79-1.77-4.19q-2.3-5.44-4.52-10.93l-1.53-3.82q-3.63-9.07-7.05-18.27c-.42-1.14-.85-2.28-1.26-3.42l-1.08-3q-.9-2.45-1.77-4.91c-.59-1.64-1.17-3.29-1.74-4.93s-1.15-3.29-1.71-4.94q-1.7-5-3.33-9.92-1-2.9-1.89-5.81c-.45-1.39-.89-2.78-1.33-4.17q-.79-2.51-1.56-5t-1.52-5c0-.07,0-.14-.07-.22l-1.41-4.73c0-.15-.09-.31-.13-.46-.47-1.58-.93-3.15-1.38-4.73s-1-3.37-1.45-5.06-.95-3.38-1.41-5.07-.93-3.39-1.38-5.09q-1.44-5.31-2.8-10.66l-1.17-4.67q-.65-2.56-1.26-5.13t-1.23-5.15q-.61-2.56-1.2-5.15c-.46-2-.92-4-1.36-6-.32-1.44-.63-2.88-.95-4.33-.37-1.72-.74-3.46-1.1-5.19q-.43-2-.84-4.05c-.28-1.36-.56-2.71-.82-4.07l-.51-2.55-1-5q-.49-2.61-1-5.24-1.05-5.67-2-11.39c-.24-1.46-.49-2.92-.73-4.39q-.43-2.64-.85-5.28c-.28-1.76-.55-3.53-.82-5.29s-.53-3.54-.79-5.31c-.22-1.5-.43-3-.64-4.5-.17-1.19-.33-2.37-.49-3.56-.12-.86-.24-1.71-.35-2.58l-.69-5.33c-.19-1.54-.39-3.09-.57-4.64-.11-.91-.22-1.81-.32-2.71-.14-1.12-.26-2.23-.39-3.35q-.59-5.07-1.09-10.15c-.21-2-.4-4-.59-6-.17-1.79-.33-3.59-.49-5.39q-.46-5.17-.85-10.37c-.14-1.82-.28-3.64-.4-5.46q-.57-8.19-1-16.43c-.07-1.37-.14-2.75-.19-4.12q-.93-19.93-.93-40.1t.93-40.09c0-1.38.12-2.75.19-4.13q.42-8.23,1-16.43c.12-1.82.26-3.64.4-5.46q.39-5.19.85-10.37c.16-1.8.32-3.6.49-5.39.19-2,.38-4,.59-6q.51-5.08,1.09-10.15c.12-1.11.25-2.23.39-3.35.1-.9.21-1.8.32-2.71.18-1.55.38-3.1.57-4.64l.69-5.33c.11-.87.23-1.72.35-2.58.16-1.19.32-2.37.49-3.56.21-1.5.42-3,.64-4.5q.39-2.65.79-5.31c.27-1.76.54-3.53.82-5.29s.56-3.52.85-5.28c.24-1.47.49-2.93.73-4.39q1-5.71,2-11.39.48-2.62,1-5.24l1-5,.51-2.55c.26-1.36.54-2.71.82-4.07s.55-2.7.84-4c.36-1.73.73-3.47,1.1-5.19.32-1.44.63-2.88.95-4.32.44-2,.9-4,1.36-6q.58-2.58,1.2-5.15t1.23-5.15q.61-2.57,1.26-5.13l1.17-4.67q1.36-5.34,2.8-10.66.68-2.55,1.38-5.09t1.41-5.07q.72-2.54,1.45-5.06c.45-1.58.91-3.15,1.38-4.73,0-.15.08-.31.13-.46l1.41-4.73c0-.08,0-.15.07-.22q.75-2.49,1.52-5t1.56-5c.44-1.39.88-2.78,1.33-4.17q.93-2.91,1.89-5.81,1.63-5,3.33-9.92.84-2.48,1.71-4.94c.57-1.64,1.15-3.29,1.74-4.93s1.17-3.28,1.77-4.91l1.08-3c.41-1.14.84-2.28,1.26-3.42q3.44-9.19,7.05-18.27l1.53-3.82q2.22-5.49,4.52-10.93c.58-1.4,1.17-2.79,1.77-4.19q1-2.39,2.05-4.77c.69-1.58,1.38-3.17,2.08-4.75s1.27-2.87,1.92-4.3q3.27-7.32,6.69-14.57,1.09-2.34,2.22-4.68c.81-1.69,1.62-3.39,2.44-5.07q1-2.13,2.08-4.24,1.14-2.32,2.3-4.63t2.33-4.62q1.29-2.54,2.59-5,1.07-2.07,2.15-4.13,2.38-4.57,4.84-9.12,1.1-2,2.21-4.08,3.48-6.36,7-12.66l1.89-3.31q1.55-2.69,3.1-5.35c.61-1.06,1.23-2.11,1.86-3.17l1.95-3.3,2.37-4q1.29-2.14,2.6-4.29l1.92-3.13q1.26-2,2.53-4.07c.7-1.13,1.4-2.25,2.11-3.37l1.77-2.8,2.6-4.07a1.67,1.67,0,0,0,.18-.28l2.69-4.13q1.39-2.14,2.82-4.29t2.85-4.28l2.87-4.26c1.12-1.65,2.24-3.3,3.38-4.94l2.43-3.52q1.47-2.12,2.95-4.21l3-4.18q8.59-12,17.59-23.78l3.05-3.94,1.66-2.13,2.32-3q8-10.16,16.3-20c1-1.26,2.1-2.5,3.16-3.75q16.56-19.53,34.25-38c1.17-1.23,2.36-2.46,3.54-3.69l3.57-3.67q5.84-6,11.8-11.83c.89-.89,1.79-1.76,2.69-2.64q3.66-3.57,7.37-7.1t7.17-6.76q1.89-1.76,3.79-3.5t3.8-3.48q22.84-20.76,47.16-39.88l3-2.34q6.69-5.21,13.49-10.3,4-3,8-5.94l.27-.2q10.23-7.46,20.68-14.62,4.24-2.89,8.51-5.75l4.28-2.85,4.3-2.81q4.3-2.8,8.65-5.56t8.73-5.45l4.38-2.69,4.41-2.67q4.41-2.64,8.86-5.25l4.45-2.58q4.33-2.5,8.69-4.94,4.63-2.61,9.3-5.15l4.54-2.45,4.56-2.43q6.84-3.63,13.76-7.13l4.62-2.32,4.64-2.3q7-3.42,14-6.72c2.34-1.1,4.7-2.19,7-3.27q7.07-3.24,14.21-6.35c2.38-1,4.76-2.06,7.15-3.08l4.79-2,4.8-2q4.82-2,9.65-3.9l4.85-1.9,4.86-1.88,4.87-1.85,4.78-1.78.18-.07q7-2.58,14.12-5.06l5.51-1.9q4.95-1.7,9.93-3.32l4.22-1.37,1.16-.38,4.6-1.45c1.67-.53,3.34-1,5-1.56q5-1.55,10.06-3,2.52-.75,5-1.47,5.05-1.45,10.14-2.84l5.09-1.38,5.1-1.34c1.7-.45,3.4-.88,5.11-1.32q4.66-1.19,9.36-2.32l-.09.05c-5,2.81-33.38,24.13-46.56,35.15C683,256.49,648.06,344.63,648.06,467.25V590.63q0,121,33.22,211.69t84.1,141.52q50.85,50.8,109,100.4t109,88.3q3.46,2.64,6.84,5.39,46.27,37.77,77.25,98.63Q1100.7,1301.89,1100.73,1386.56Z"/><circle class="cls-3" cx="992.75" cy="630.98" r="11"/><path class="cls-3" d="M1087.07,427.87l-5.23,5.38-2.78,2.86-1.31,1.35-4,4.11-23.6,24.27-2.8,2.87-6.19,6.36-10.56,10.86-35.85,36.86V631h-4V521.17l41.34-42.5a0,0,0,0,1,0,0l1.84-1.89,10.62-10.92,2.79-2.87,26.4-27.13,2.49-2.56,1.51-1.55,1.27-1.31,6.39-6.57C1086,425.17,1086.54,426.51,1087.07,427.87Z"/><circle class="cls-3" cx="971.75" cy="457.98" r="11"/><circle class="cls-3" cx="1484.75" cy="329.98" r="14"/><path class="cls-3" d="M1350.75,357a14,14,0,0,1-19.54,12.86q-2.33-11.18-5.2-21.83a14,14,0,0,1,24.74,9Z"/><path class="cls-3" d="M1052.21,385.35l-8,7.46-4,3.74-30.19,28.29-2.93,2.74L981,452.05l-7.89,7.39-2.74-2.92,7.9-7.4,26-24.41,2.93-2.74,33-30.9,4-3.75,4.32-4C1049.81,383.94,1051,384.62,1052.21,385.35Z"/><path class="cls-3" d="M1096.57,606.21v5l-8.82-6.67-4-3-3-2.25-4-3-3.05-2.31V404.23c1.4,1.77,2.74,3.6,4,5.51V592l3.08,2.33,2.92,2.21,4,3Z"/><path class="cls-3" d="M1135.75,840.19v58.57l-19.9,21.48-3.06-2.59,19-20.45V841.77l-48-51V488.18L1096.27,475c.1,1.84.17,3.7.21,5.59l-8.73,9.19V789.19Z"/><path class="cls-3" d="M1029.75,752.14V850.7l-4-3V753.82l-96.59-95.33-3.95-3.9-30.88-30.48c-.17-2-.32-4-.45-6.05l31.41,31,4,3.9Z"/><path class="cls-3" d="M1204.75,731v179.8l-12,11.59-4,3.86-31.34,30.25-3-2.68,34.32-33.13,4-3.87,8-7.72V732.93l-8-6.48-4-3.23-14.78-12h6.35l8.43,6.83,4,3.24Z"/><path class="cls-3" d="M1315.75,826.15v88.71l-7.67,7-2.83,2.6-1.17,1.08-2.83,2.6-23.5,21.59-4,3.68-23,21.14-4,3.68-3,2.75-4,3.68-15,13.78-4,3.68-7.31,6.72-2.87-2.79,10.18-9.36,4-3.67,15-13.79,4-3.68,3-2.75,4-3.68,23-21.14,4-3.68,23.5-21.6,2.83-2.6,1.17-1.08,2.83-2.6,3.67-3.37V827.81l-1.19-1.19-32.81-32.81-4-4-23-23-11-11-44.55-44.55h5.64l31.58,31.58,7.33,7.33.81.8,3.19,3.2,7,7,23,23Z"/><path class="cls-3" d="M1337.75,751.09v265.75l-22.15,20.94-2.91,2.75-4.61,4.36-4,3.78-18.92,17.89-2.91,2.75-10.81,10.22q-1.06-1.76-2.13-3.48l10.12-9.57,2.9-2.75,21.75-20.56,4-3.78,1.75-1.66,2.91-2.75,21-19.86V752.87l-11-9.84-4-3.58-31.52-28.2h6l25.53,22.84,4,3.58,11,9.84Z"/><path class="cls-3" d="M1398.75,726.15v330.67l-6,5.84-.25.24-2.87,2.79-3.49,3.4-2.86,2.78-16.5,16.06-2.87,2.79-27.67,26.92-2.87,2.79L1308.08,1145l-3.24,3.15c-.25-.64-.5-1.28-.76-1.92l-.84-2.09.84-.82,4-3.89,22.47-21.86,2.86-2.79,27.65-26.9,2.86-2.79,16.5-16,2.86-2.79,3.53-3.43,2.86-2.79,3.08-3,2-2V727.81l-33-33-4-4-16.15-16.15V669l20.15,20.15,17,17Z"/><polygon class="cls-3" points="1400.75 742.58 1400.75 1649.98 1392.75 1649.98 1392.75 746.04 1378.75 732.88 1361.75 716.9 1357.75 713.14 1341.6 697.96 1341.6 686.99 1357.75 702.17 1361.75 705.93 1378.75 721.91 1382.75 725.66 1394.75 736.94 1400.75 742.58"/><path class="cls-3" d="M1352.75,1597.15v128.22l-4,1.5-2.52.94-2.78,1-1.4-3.74,3.13-1.18,3.57-1.34V1598.81l-6.1-6.1c.19-1.7.36-3.4.53-5.12Z"/><rect class="cls-3" x="1342.31" y="1688.06" width="8.87" height="4" transform="translate(-598.07 747.88) rotate(-25.6)"/><rect class="cls-3" x="1342.63" y="1653.98" width="8.25" height="4" transform="translate(-361.58 376.28) rotate(-14.04)"/><rect class="cls-3" x="1348.75" y="1723.98" width="4" height="42"/><polygon class="cls-3" points="1398.04 1549.45 1395.46 1552.51 1392.75 1550.24 1382.75 1541.85 1378.75 1538.5 1345.75 1510.82 1345.75 1505.59 1378.75 1533.27 1382.75 1536.63 1392.75 1545.01 1398.04 1549.45"/><polygon class="cls-3" points="1398.04 1481.45 1395.46 1484.51 1392.75 1482.24 1388.47 1478.65 1374.61 1467.02 1369.75 1462.95 1365.75 1459.59 1345.75 1442.82 1345.75 1437.59 1365.75 1454.37 1369.75 1457.72 1377.95 1464.6 1390.27 1474.93 1392.75 1477.01 1398.04 1481.45"/><path class="cls-3" d="M1398,1402.45l-.7.83-1.88,2.23-2.71-2.27-11.83-9.92-11.17-9.37-4-3.36-20.35-17.07c-.05-1.79-.1-3.58-.17-5.36l20.52,17.21,4,3.35,13.13,11,9.87,8.27,3.14,2.63h0Z"/><polygon class="cls-3" points="1507.75 1420.75 1507.75 1426.28 1503.75 1422.47 1499.75 1418.67 1464.75 1385.38 1460.75 1381.57 1459.75 1380.62 1455.75 1376.82 1442.75 1364.45 1442.75 1358.92 1455.75 1371.29 1459.75 1375.1 1460.75 1376.05 1464.75 1379.85 1499.75 1413.14 1503.75 1416.95 1507.75 1420.75"/><polygon class="cls-3" points="1507.75 1314.76 1507.75 1320.51 1503.75 1316.39 1499.75 1312.26 1484.75 1296.79 1484.75 1206.98 1488.75 1206.98 1488.75 1295.17 1499.75 1306.51 1503.75 1310.64 1507.75 1314.76"/><polygon class="cls-3" points="1477.75 1117.44 1507.75 1089.66 1507.75 1095.12 1477.75 1122.89 1473.75 1126.6 1464.12 1135.51 1460.75 1138.64 1442.75 1155.3 1442.75 1149.84 1458.55 1135.21 1461.48 1132.5 1473.75 1121.14 1477.75 1117.44"/><polygon class="cls-3" points="1507.75 687.69 1507.75 693.22 1487.75 712.27 1473.75 725.6 1469.75 729.41 1465.34 733.61 1462.43 736.38 1457.75 740.84 1457.75 1072.87 1451.09 1078.83 1448.1 1081.51 1442.75 1086.29 1442.75 1080.93 1445.19 1078.75 1448.18 1076.07 1453.75 1071.09 1453.75 739.12 1459.5 733.64 1462.41 730.88 1469.75 723.88 1473.75 720.07 1487.75 706.74 1491.75 702.93 1499.75 695.31 1507.75 687.69"/><polygon class="cls-3" points="1507.75 773.23 1507.75 778.71 1491.75 763.76 1487.75 760.03 1473.75 746.95 1469.75 743.21 1462.43 736.38 1459.5 733.64 1442.75 717.99 1442.75 712.52 1462.41 730.88 1465.34 733.61 1469.75 737.73 1473.75 741.47 1487.75 754.55 1491.75 758.28 1507.75 773.23"/><polygon class="cls-3" points="1507.75 681.16 1507.75 686.8 1442.75 621.8 1442.75 616.16 1507.75 681.16"/><path class="cls-3" d="M1507.75,565.36V571l-16-15.73-4-3.93-29-28.5V319.23l6.3-7.18,2.64-3,16.61-18.92,8-9.09,3.31,2.29-8,9.08h0l-17.16,19.55-2.64,3-5.06,5.76V521.14l25,24.57,4,3.93Z"/><polygon class="cls-3" points="1486.2 328.61 1483.3 331.35 1473.79 321.29 1467.81 314.97 1465.05 312.05 1442.75 288.46 1442.75 282.65 1467.69 309.04 1470.45 311.95 1476.68 318.54 1486.2 328.61"/><path class="cls-3" d="M1400.75,405.84v5.42l-48,44.18-4,3.68-7.29,6.71q0-2.67-.12-5.31l7.41-6.82,4-3.68Z"/><circle class="cls-3" cx="1306.67" cy="1762.97" r="6.06" transform="translate(-553.67 2926.84) rotate(-85.49)"/><circle class="cls-3" cx="1340.97" cy="1727.16" r="5.3" transform="translate(-486.36 2928.04) rotate(-85.49)"/><circle class="cls-3" cx="1375.97" cy="1762.16" r="5.3" transform="translate(-489.01 2995.17) rotate(-85.49)"/><circle class="cls-3" cx="1270.67" cy="1797.97" r="6.06" transform="translate(-621.73 2923.2) rotate(-85.49)"/><circle class="cls-4" cx="1344.48" cy="1767.42" r="8.51" transform="translate(-523.27 2968.63) rotate(-85.49)"/><circle class="cls-4" cx="1390.44" cy="1149.96" r="9.05" transform="translate(134.62 2445.57) rotate(-85.49)"/><circle class="cls-4" cx="1305.44" cy="876.96" r="9.05" transform="translate(328.46 2109.32) rotate(-85.49)"/><circle class="cls-4" cx="1241.44" cy="741.96" r="9.05" transform="translate(404.08 1921.15) rotate(-85.49)"/><circle class="cls-4" cx="1381.44" cy="459.96" r="9.05" transform="translate(782.34 1786.98) rotate(-84.12)"/><circle class="cls-4" cx="1039.44" cy="483.96" r="9.05" transform="translate(451.51 1468.32) rotate(-84.12)"/><circle class="cls-4" cx="1381.44" cy="1472.96" r="9.05" transform="translate(-195.67 2734.18) rotate(-85.49)"/><circle class="cls-3" cx="1340.75" cy="1691.98" r="5.06" transform="translate(-451.5 2895.41) rotate(-85.49)"/><circle class="cls-3" cx="1341.75" cy="1657.98" r="5.06" transform="translate(-416.69 2865.08) rotate(-85.49)"/><circle class="cls-3" cx="1486.75" cy="1199.98" r="10.97" transform="translate(173.48 2587.68) rotate(-85.49)"/><circle class="cls-5" cx="1368.71" cy="862.52" r="7.52" transform="translate(401.15 2159.1) rotate(-85.49)"/><circle class="cls-5" cx="1340.59" cy="917.97" r="8.97" transform="translate(319.96 2182.16) rotate(-85.49)"/><circle class="cls-5" cx="1140.44" cy="877.92" r="7.02" transform="translate(175.49 1945.72) rotate(-85.49)"/><circle class="cls-5" cx="1391.71" cy="971.52" r="7.52" transform="translate(313.67 2282.45) rotate(-85.49)"/><circle class="cls-5" cx="1388.71" cy="1172.52" r="7.52" transform="translate(110.53 2464.64) rotate(-85.49)"/><circle class="cls-5" cx="1579.71" cy="1517.52" r="7.52" transform="translate(-57.43 2972.89) rotate(-85.49)"/><circle class="cls-5" cx="1558.71" cy="1627.52" r="7.52" transform="translate(-186.43 3053.3) rotate(-85.49)"/><circle class="cls-5" cx="1495.71" cy="1652.52" r="7.52" transform="translate(-269.4 3013.53) rotate(-85.49)"/><circle class="cls-5" cx="1369.83" cy="1676.49" r="6.57" transform="translate(-409.27 2910.13) rotate(-85.49)"/><circle class="cls-5" cx="1362.72" cy="1610.94" r="8.01" transform="translate(-350.47 2842.65) rotate(-85.49)"/><circle class="cls-5" cx="1583.71" cy="1602.52" r="7.52" transform="translate(-138.48 3055.19) rotate(-85.49)"/><path class="cls-5" d="M1616.75,1572.05V1581a7.51,7.51,0,1,1-5.45-12,7.7,7.7,0,0,1,1.45.26A7.45,7.45,0,0,1,1616.75,1572.05Z"/><circle class="cls-5" cx="1320.71" cy="760.52" r="7.52" transform="translate(458.61 2017.27) rotate(-85.49)"/><circle class="cls-5" cx="1501.71" cy="491.52" r="7.52" transform="translate(893.53 1949.88) rotate(-85.49)"/><path class="cls-5" d="M1507.75,531.05V540a7.51,7.51,0,0,1-13.39-2.92,7,7,0,0,1-.15-2.15,7.54,7.54,0,0,1,.75-2.72,7.58,7.58,0,0,1,7.34-4.18l.69.08A7.45,7.45,0,0,1,1507.75,531.05Z"/><path class="cls-5" d="M1507.75,596v15c-.21,0-.42,0-.63,0a7.52,7.52,0,0,1-5.77-11.51,7.67,7.67,0,0,1,3-2.69A7.42,7.42,0,0,1,1507.75,596Z"/><circle class="cls-5" cx="1298.71" cy="205.52" r="7.52" transform="translate(991.62 1484.02) rotate(-85.49)"/><path class="cls-5" d="M1332.2,330.11a7.51,7.51,0,0,1-8.08,6.9,8.08,8.08,0,0,1-1.32-.22h0q-1.84-6.12-3.89-12a7.52,7.52,0,0,1,13.29,5.38Z"/><circle class="cls-3" cx="1463.59" cy="1508.01" r="13" transform="matrix(0.08, -1, 1, 0.08, -154.93, 2848.37)"/><path class="cls-3" d="M1616.75,1212v27.95a14.95,14.95,0,0,1-13.6-1.53,15.28,15.28,0,0,1-2.4-2c-.2-.21-.4-.42-.6-.65a14.85,14.85,0,0,1-3.62-11,14.72,14.72,0,0,1,.22-1.64,15,15,0,0,1,20-11.16Z"/><circle class="cls-3" cx="1599.04" cy="748.78" r="11.71"/><circle class="cls-3" cx="1692.04" cy="605.52" r="13.46"/><circle class="cls-3" cx="1456.58" cy="955.09" r="13.08" transform="translate(389.82 2331.98) rotate(-85.49)"/><circle class="cls-3" cx="1456.58" cy="818.09" r="13.08" transform="translate(526.4 2205.77) rotate(-85.49)"/><circle class="cls-3" cx="1379.58" cy="592.09" r="13.08" transform="translate(680.76 1920.79) rotate(-85.49)"/><circle class="cls-3" cx="1364.43" cy="633.07" r="11.08" transform="translate(625.93 1943.44) rotate(-85.49)"/><polygon class="cls-3" points="1479.75 1567.07 1479.75 1720.98 1475.75 1720.98 1475.75 1568.89 1467.34 1561.55 1442.75 1540.1 1442.75 1534.79 1479.75 1567.07"/><polygon class="cls-3" points="1464.75 1136.23 1464.75 1502.98 1460.75 1502.98 1460.75 1137.73 1458.55 1135.21 1442.75 1117.16 1442.75 1111.09 1461.48 1132.5 1464.12 1135.51 1464.15 1135.55 1464.19 1135.58 1464.75 1136.23"/><polygon class="cls-3" points="1400.75 667.58 1400.75 673.1 1382.75 656.02 1378.75 652.23 1369.13 643.1 1367.37 641.43 1370.13 638.53 1372.44 640.72 1378.75 646.71 1382.75 650.5 1400.75 667.58"/><polygon class="cls-3" points="1616.75 671.66 1616.75 677.04 1615.75 676.14 1607.75 668.92 1575.38 639.72 1572.41 637.03 1550.39 617.17 1549.75 616.59 1549.75 611.22 1550.23 611.65 1553.21 614.34 1575.27 634.24 1578.24 636.92 1607.75 663.54 1615.75 670.76 1616.75 671.66"/><polygon class="cls-3" points="1601.53 1240.02 1616.75 1256.29 1616.75 1262.15 1598.7 1242.85 1596.75 1240.77 1596.75 746.98 1600.75 746.98 1600.75 1239.19 1601.53 1240.02"/><rect class="cls-3" x="1607.75" y="389.98" width="8" height="821"/><rect class="cls-3" x="1686.75" y="478.98" width="8" height="124"/><polygon class="cls-3" points="1723.75 660.97 1723.75 666.56 1718.89 671.3 1716.04 674.09 1711.87 678.16 1709 680.96 1695.6 694.04 1692.75 696.82 1692.75 1294.82 1683.36 1303.98 1679.26 1307.98 1674.45 1312.67 1673.75 1313.36 1671.59 1315.46 1669.75 1317.26 1658.75 1327.99 1658.75 1322.4 1669.75 1311.67 1677.64 1303.98 1688.75 1293.14 1688.75 695.14 1689.88 694.04 1692.74 691.24 1706.11 678.19 1708.97 675.4 1713.21 671.26 1716.07 668.47 1723.75 660.97"/><polygon class="cls-3" points="1723.75 1364.43 1723.75 1370.23 1722.49 1368.91 1718.49 1364.71 1711.13 1356.98 1707.32 1352.98 1682.38 1326.79 1679.62 1323.89 1673.75 1317.73 1671.59 1315.46 1670.2 1314 1673.09 1311.24 1673.75 1311.93 1674.45 1312.67 1682.43 1321.05 1685.19 1323.95 1712.85 1352.98 1716.66 1356.98 1718.49 1358.91 1722.49 1363.11 1723.75 1364.43"/><polygon class="cls-3" points="1713.75 1427.12 1713.75 1491.98 1709.75 1491.98 1709.75 1428.84 1705.68 1424.98 1673.75 1394.74 1669.75 1390.95 1658.75 1380.53 1658.75 1375.01 1669.75 1385.43 1673.75 1389.22 1711.49 1424.98 1713.75 1427.12"/><polygon class="cls-3" points="1723.75 1248.62 1723.75 1254.18 1720.75 1251.29 1716.75 1247.43 1706.95 1237.98 1705.75 1236.82 1702.81 1233.98 1701.75 1232.96 1692.75 1224.28 1688.75 1220.42 1683.11 1214.98 1682.75 1214.63 1678.96 1210.98 1678.75 1210.77 1673.75 1205.95 1669.75 1202.09 1658.75 1191.48 1658.75 1185.92 1669.75 1196.53 1673.75 1200.39 1678.75 1205.21 1682.75 1209.07 1684.73 1210.98 1688.75 1214.86 1688.88 1214.98 1692.75 1218.72 1701.75 1227.4 1705.75 1231.26 1708.57 1233.98 1712.72 1237.98 1716.75 1241.87 1720.75 1245.73 1723.75 1248.62"/><polygon class="cls-3" points="1723.75 863.16 1723.75 868.8 1692.75 837.8 1689.34 834.39 1692.16 831.57 1723.75 863.16"/><polygon class="cls-3" points="1723.75 689.52 1723.75 695.06 1709 680.96 1706.11 678.19 1682.75 655.86 1678.75 652.04 1660.75 634.83 1660.75 442.98 1664.75 442.98 1664.75 633.13 1678.75 646.51 1682.75 650.33 1708.97 675.4 1711.87 678.16 1723.75 689.52"/><path class="cls-3" d="M1826.75,964.27v311.29q-3.75,11.27-7.8,22.42h-.2V967.69L1780.39,931l-4.17-4-10.47-10V905.88l20,19.15,4,3.82Z"/><path class="cls-3" d="M932.76,394.42V395l-3.51,257.94-.08,5.54-1,72.41-.07,5.55,0,3.74c-.59-1.06-1.17-2.12-1.75-3.2q-1.09-2-2.15-4.09v-.1l1.06-78.21.08-5.54,3.45-253.51-3.39-5.43c1-.85,2.11-1.66,3.2-2.43Z"/><path class="cls-3" d="M958.84,761.24l-2.4,22.19q-1.79-2.27-3.52-4.6l1.74-16.11L928.1,736.45l-3.34-3.3,2.81-2.85.6.6Z"/><polygon class="cls-6" points="1106.75 760.98 1174.75 760.98 1140.75 822.98 1106.75 760.98"/><polygon class="cls-6" points="1476.75 1194.98 1442.75 1194.98 1442.75 1193.69 1459.4 1163.33 1460.75 1165.79 1468.75 1180.39 1473.75 1189.51 1476.75 1194.98"/><polygon class="cls-6" points="1400.75 1409.51 1400.75 1414.98 1369.04 1414.98 1369.75 1413.69 1380.92 1393.32 1382.88 1389.74 1384.3 1387.16 1386.31 1383.49 1386.4 1383.33 1386.71 1383.9 1386.72 1383.91 1392.75 1394.91 1393.76 1396.76 1393.77 1396.77 1395.89 1400.64 1395.9 1400.65 1397.34 1403.28 1400.75 1409.51"/><polygon class="cls-6" points="1341.43 883.98 1363.36 883.98 1352.39 903.98 1341.43 883.98"/><polygon class="cls-3" points="1614.52 435.7 1607.75 442.19 1570.7 477.72 1566.7 481.56 1549.75 497.81 1549.75 486.72 1607.75 431.11 1608.98 429.93 1614.52 435.7"/><polygon class="cls-3" points="1507.75 1512.46 1507.75 1518.26 1464.75 1473.21 1460.75 1469.02 1459.75 1467.97 1455.75 1463.78 1442.75 1450.16 1442.75 1444.37 1455.75 1457.99 1459.75 1462.18 1460.75 1463.22 1464.75 1467.41 1507.75 1512.46"/><polygon class="cls-3" points="1616.75 1425.75 1616.75 1431.27 1584.23 1400.32 1581.34 1397.57 1573.75 1390.35 1569.75 1386.54 1549.75 1367.5 1549.75 1361.98 1569.75 1381.01 1573.75 1384.82 1584.17 1394.73 1587.07 1397.49 1616.75 1425.75"/><polygon class="cls-3" points="1616.75 1332.06 1616.75 1337.75 1588.75 1309.34 1586.62 1307.18 1584.75 1305.28 1583.81 1304.33 1560.68 1280.87 1557.89 1278.02 1551.75 1271.8 1551.75 735.74 1549.75 733.5 1549.75 727.51 1553.75 731.98 1555.75 734.22 1555.75 1270.16 1560.71 1275.2 1563.51 1278.04 1584.75 1299.59 1586.66 1301.53 1588.75 1303.65 1589.47 1304.38 1616.75 1332.06"/><path class="cls-3" d="M1669.75,1376v53h51v-53Zm47,49h-43v-45h43Z"/><path class="cls-3" d="M1669.75,1304v53h51v-53Zm47,49h-43v-45h43Z"/><path class="cls-3" d="M1705.75,1236.82l-2.94-2.84h-10.06v4h14.2Zm0,0-2.94-2.84h-10.06v4h14.2Zm0,0-2.94-2.84h-10.06v4h14.2Zm0,0-2.94-2.84h-10.06v4h14.2Zm0,0-2.94-2.84h-10.06v4h14.2Zm0,0-2.94-2.84h-10.06v4h14.2Zm0,0-2.94-2.84h-10.06v4h14.2Zm0,0-2.94-2.84h-10.06v4h14.2Zm0,0-2.94-2.84h-10.06v4h14.2Zm0,0-2.94-2.84h-10.06v4h14.2Zm0,0-2.94-2.84h-10.06v4h14.2Zm0,0-2.94-2.84h-10.06v4h14.2Zm0,0-2.94-2.84h-10.06v4h14.2Zm0,0-2.94-2.84h-10.06v4h14.2Zm0,0-2.94-2.84h-10.06v4h14.2Zm0,0-2.94-2.84h-10.06v4h14.2Zm0,0-2.94-2.84h-10.06v4h14.2Zm0,0-2.94-2.84h-10.06v4h14.2Zm0,0-2.94-2.84h-10.06v4h14.2Zm0,0-2.94-2.84h-10.06v4h14.2Zm0,0-2.94-2.84h-10.06v4h14.2Zm0,0-2.94-2.84h-10.06v4h14.2Zm0,0-2.94-2.84h-10.06v4h14.2Zm0,0-2.94-2.84h-10.06v4h14.2Zm0,0-2.94-2.84h-10.06v4h14.2Zm0,0-2.94-2.84h-10.06v4h14.2Zm0,0-2.94-2.84h-10.06v4h14.2Zm0,0-2.94-2.84h-10.06v4h14.2Zm0,0-2.94-2.84h-10.06v4h14.2Zm0,0-2.94-2.84h-10.06v4h14.2Zm0,0-2.94-2.84h-10.06v4h14.2Zm0,0-2.94-2.84h-10.06v4h14.2Zm0,0-2.94-2.84h-10.06v4h14.2Zm0,0-2.94-2.84h-10.06v4h14.2Zm0,0-2.94-2.84h-10.06v4h14.2Zm0,0-2.94-2.84h-10.06v4h14.2Zm0,0-2.94-2.84h-10.06v4h14.2Zm0,0-2.94-2.84h-10.06v4h14.2Zm0,0-2.94-2.84h-10.06v4h14.2Zm0,0-2.94-2.84h-10.06v4h14.2Zm0,0-2.94-2.84h-10.06v4h14.2Zm0,0-2.94-2.84h-10.06v4h14.2Zm0,0-2.94-2.84h-10.06v4h14.2Zm0,0-2.94-2.84h-10.06v4h14.2Zm0,0-2.94-2.84h-10.06v4h14.2Zm0,0-2.94-2.84h-10.06v4h14.2Zm0,0-2.94-2.84h-10.06v4h14.2Zm0,0-2.94-2.84h-10.06v4h14.2Zm0,0-2.94-2.84h-10.06v4h14.2Zm0,0-2.94-2.84h-10.06v4h14.2Zm0,0-2.94-2.84h-10.06v4h14.2Zm0,0-2.94-2.84h-10.06v4h14.2Zm0,0-2.94-2.84h-10.06v4h14.2Zm0,0-2.94-2.84h-1.06v4h5.2Zm0,0-2.94-2.84h-1.06v4h5.2Zm0,0-2.94-2.84h-1.06v4h5.2Zm0,0-2.94-2.84h-1.06v4h5.2Zm0,0-2.94-2.84h-1.06v4h5.2Zm0,0-2.94-2.84h-1.06v4h5.2Zm0,0-2.94-2.84h-10.06v4h14.2Zm0,0-2.94-2.84h-10.06v4h14.2Zm-36-2.84v53h51v-53Zm47,49h-43v-45h43Zm-11-46.16-2.94-2.84h-10.06v4h14.2Zm0,0-2.94-2.84h-1.06v4h5.2Zm0,0-2.94-2.84h-1.06v4h5.2Zm0,0-2.94-2.84h-1.06v4h5.2Zm0,0-2.94-2.84h-1.06v4h5.2Zm0,0-2.94-2.84h-1.06v4h5.2Zm0,0-2.94-2.84h-1.06v4h5.2Zm0,0-2.94-2.84h-1.06v4h5.2Zm0,0-2.94-2.84h-10.06v4h14.2Zm0,0-2.94-2.84h-10.06v4h14.2Zm0,0-2.94-2.84h-10.06v4h14.2Zm0,0-2.94-2.84h-10.06v4h14.2Zm0,0-2.94-2.84h-10.06v4h14.2Zm0,0-2.94-2.84h-10.06v4h14.2Zm0,0-2.94-2.84h-10.06v4h14.2Zm0,0-2.94-2.84h-10.06v4h14.2Zm0,0-2.94-2.84h-10.06v4h14.2Zm0,0-2.94-2.84h-10.06v4h14.2Zm0,0-2.94-2.84h-10.06v4h14.2Zm0,0-2.94-2.84h-10.06v4h14.2Zm0,0-2.94-2.84h-10.06v4h14.2Zm0,0-2.94-2.84h-10.06v4h14.2Zm0,0-2.94-2.84h-10.06v4h14.2Zm0,0-2.94-2.84h-10.06v4h14.2Zm0,0-2.94-2.84h-10.06v4h14.2Zm0,0-2.94-2.84h-10.06v4h14.2Zm0,0-2.94-2.84h-10.06v4h14.2Zm0,0-2.94-2.84h-10.06v4h14.2Zm0,0-2.94-2.84h-10.06v4h14.2Zm0,0-2.94-2.84h-10.06v4h14.2Zm0,0-2.94-2.84h-10.06v4h14.2Zm0,0-2.94-2.84h-10.06v4h14.2Zm0,0-2.94-2.84h-10.06v4h14.2Zm0,0-2.94-2.84h-10.06v4h14.2Zm0,0-2.94-2.84h-10.06v4h14.2Zm0,0-2.94-2.84h-10.06v4h14.2Zm0,0-2.94-2.84h-10.06v4h14.2Zm0,0-2.94-2.84h-10.06v4h14.2Zm0,0-2.94-2.84h-10.06v4h14.2Zm0,0-2.94-2.84h-10.06v4h14.2Zm0,0-2.94-2.84h-10.06v4h14.2Zm0,0-2.94-2.84h-10.06v4h14.2Zm0,0-2.94-2.84h-10.06v4h14.2Zm0,0-2.94-2.84h-10.06v4h14.2Zm0,0-2.94-2.84h-10.06v4h14.2Zm0,0-2.94-2.84h-10.06v4h14.2Zm0,0-2.94-2.84h-10.06v4h14.2Zm0,0-2.94-2.84h-10.06v4h14.2Zm0,0-2.94-2.84h-10.06v4h14.2Zm0,0-2.94-2.84h-10.06v4h14.2Zm0,0-2.94-2.84h-10.06v4h14.2Zm0,0-2.94-2.84h-10.06v4h14.2Zm0,0-2.94-2.84h-10.06v4h14.2Zm0,0-2.94-2.84h-10.06v4h14.2Zm0,0-2.94-2.84h-10.06v4h14.2Zm0,0-2.94-2.84h-10.06v4h14.2Zm0,0-2.94-2.84h-10.06v4h14.2Zm0,0-2.94-2.84h-10.06v4h14.2Zm0,0-2.94-2.84h-10.06v4h14.2Zm0,0-2.94-2.84h-10.06v4h14.2Z"/><path class="cls-3" d="M1684.73,1211l4,3.88V1211Zm0,0,4,3.88V1211Zm0,0,4,3.88V1211Zm0,0,4,3.88V1211Zm0,0,4,3.88V1211Zm0,0,4,3.88V1211Zm-15-49v53h51v-53Zm47,49h-43v-45h43Zm-32,0,4,3.88V1211Zm0,0,4,3.88V1211Zm0,0,4,3.88V1211Zm0,0,4,3.88V1211Zm0,0,4,3.88V1211Zm0,0,4,3.88V1211Zm0,0,4,3.88V1211Z"/><path class="cls-3" d="M1669.75,1021v53h51v-53Zm47,49h-43v-45h43Z"/><path class="cls-3" d="M1692.75,949v4h24v29.37a4,4,0,0,1,.36-.35,1.5,1.5,0,0,1,.23-.21,3.42,3.42,0,0,1,.47-.36l.19-.13,0,0a4,4,0,0,1,.68-.36s0,0,0,0V949Zm0,0v4h24v29.37a4,4,0,0,1,.36-.35,1.5,1.5,0,0,1,.23-.21,3.42,3.42,0,0,1,.47-.36l.19-.14,0,0a4,4,0,0,1,.68-.36s0,0,0,0V949Zm0,0v4h24v29.37a4,4,0,0,1,.36-.35,1.5,1.5,0,0,1,.23-.21,3.42,3.42,0,0,1,.47-.36l.19-.14,0,0a4,4,0,0,1,.68-.36s0,0,0,0V949Zm0,0v4h24v29.37a4,4,0,0,1,.36-.35,1.5,1.5,0,0,1,.23-.21,3.42,3.42,0,0,1,.47-.36l.19-.14,0,0a4,4,0,0,1,.68-.36s0,0,0,0V949Zm0,0v4h24v29.37a4,4,0,0,1,.36-.35,1.5,1.5,0,0,1,.23-.21,3.42,3.42,0,0,1,.47-.36l.19-.14,0,0a4,4,0,0,1,.68-.36s0,0,0,0V949Zm0,0v4h24v29.37a4,4,0,0,1,.36-.35,1.5,1.5,0,0,1,.23-.21,3.42,3.42,0,0,1,.47-.36l.19-.14,0,0a4,4,0,0,1,.68-.36s0,0,0,0V949Zm0,0v4h24v29.37a4,4,0,0,1,.36-.35,1.5,1.5,0,0,1,.23-.21,3.42,3.42,0,0,1,.47-.36l.19-.14,0,0a4,4,0,0,1,.68-.36s0,0,0,0V949Zm0,0v4h24v29.37a4,4,0,0,1,.36-.35,1.5,1.5,0,0,1,.23-.21,3.42,3.42,0,0,1,.47-.36l.19-.14,0,0a4,4,0,0,1,.68-.36s0,0,0,0V949Zm0,0v4h24v29.37a4,4,0,0,1,.36-.35,1.5,1.5,0,0,1,.23-.21,3.42,3.42,0,0,1,.47-.36l.19-.14,0,0a4,4,0,0,1,.68-.36s0,0,0,0V949Zm0,0v4h24v29.37a4,4,0,0,1,.36-.35,1.5,1.5,0,0,1,.23-.21,3.42,3.42,0,0,1,.47-.36l.19-.14,0,0a4,4,0,0,1,.68-.36s0,0,0,0V949Zm0,0v4h24v29.37a4,4,0,0,1,.36-.35,1.5,1.5,0,0,1,.23-.21,3.42,3.42,0,0,1,.47-.36l.19-.14,0,0a4,4,0,0,1,.68-.36s0,0,0,0V949Zm0,0v4h24v29.37a4,4,0,0,1,.36-.35,1.5,1.5,0,0,1,.23-.21,3.42,3.42,0,0,1,.47-.36l.19-.14,0,0a4,4,0,0,1,.68-.36s0,0,0,0V949Zm0,0v4h24v29.37a4,4,0,0,1,.36-.35,1.5,1.5,0,0,1,.23-.21,3.42,3.42,0,0,1,.47-.36l.19-.14,0,0a4,4,0,0,1,.68-.36s0,0,0,0V949Zm0,0v4h24v29.37a4,4,0,0,1,.36-.35,1.5,1.5,0,0,1,.23-.21,3.42,3.42,0,0,1,.47-.36l.19-.14,0,0a4,4,0,0,1,.68-.36s0,0,0,0V949Zm0,0v4h24v29.37a4,4,0,0,1,.36-.35,1.5,1.5,0,0,1,.23-.21,3.42,3.42,0,0,1,.47-.36l.19-.14,0,0a4,4,0,0,1,.68-.36s0,0,0,0V949Zm0,0v4h24v29.37a4,4,0,0,1,.36-.35,1.5,1.5,0,0,1,.23-.21,3.42,3.42,0,0,1,.47-.36l.19-.14,0,0a4,4,0,0,1,.68-.36s0,0,0,0V949Zm0,0v4h24v29.37a4,4,0,0,1,.36-.35,1.5,1.5,0,0,1,.23-.21,3.42,3.42,0,0,1,.47-.36l.19-.14,0,0a4,4,0,0,1,.68-.36s0,0,0,0V949Zm0,0v4h24v29.37a4,4,0,0,1,.36-.35,1.5,1.5,0,0,1,.23-.21,3.42,3.42,0,0,1,.47-.36l.19-.14,0,0a4,4,0,0,1,.68-.36s0,0,0,0V949Zm0,0v4h24v29.37a4,4,0,0,1,.36-.35,1.5,1.5,0,0,1,.23-.21,3.42,3.42,0,0,1,.47-.36l.19-.14,0,0a4,4,0,0,1,.68-.36s0,0,0,0V949Zm0,0v4h24v29.37a4,4,0,0,1,.36-.35,1.5,1.5,0,0,1,.23-.21,3.42,3.42,0,0,1,.47-.36l.19-.14,0,0a4,4,0,0,1,.68-.36s0,0,0,0V949Zm0,0v4h24v29.37a4,4,0,0,1,.36-.35,1.5,1.5,0,0,1,.23-.21,3.42,3.42,0,0,1,.47-.36l.19-.14,0,0a4,4,0,0,1,.68-.36s0,0,0,0V949Zm0,0v4h24v29.37a4,4,0,0,1,.36-.35,1.5,1.5,0,0,1,.23-.21,3.42,3.42,0,0,1,.47-.36l.19-.14,0,0a4,4,0,0,1,.68-.36s0,0,0,0V949Zm0,0v4h24v29.37a4,4,0,0,1,.36-.35,1.5,1.5,0,0,1,.23-.21,3.42,3.42,0,0,1,.47-.36l.19-.14,0,0a4,4,0,0,1,.68-.36s0,0,0,0V949Zm0,0v4h24v29.37a4,4,0,0,1,.36-.35,1.5,1.5,0,0,1,.23-.21,3.42,3.42,0,0,1,.47-.36l.19-.14,0,0a4,4,0,0,1,.68-.36s0,0,0,0V949Zm0,0v4h24v29.37a4,4,0,0,1,.36-.35,1.5,1.5,0,0,1,.23-.21,3.42,3.42,0,0,1,.47-.36l.19-.14,0,0a4,4,0,0,1,.68-.36s0,0,0,0V949Zm0,0v4h24v29.37a4,4,0,0,1,.36-.35,1.5,1.5,0,0,1,.23-.21,3.42,3.42,0,0,1,.47-.36l.19-.14,0,0a4,4,0,0,1,.68-.36s0,0,0,0V949Zm0,0v4h24v29.37a4,4,0,0,1,.36-.35,1.5,1.5,0,0,1,.23-.21,3.42,3.42,0,0,1,.47-.36l.19-.14,0,0a4,4,0,0,1,.68-.36s0,0,0,0V949Zm0,0v4h24v29.37a4,4,0,0,1,.36-.35,1.5,1.5,0,0,1,.23-.21,3.42,3.42,0,0,1,.47-.36l.19-.14,0,0a4,4,0,0,1,.68-.36s0,0,0,0V949Zm0,0v4h24v29.37a4,4,0,0,1,.36-.35,1.5,1.5,0,0,1,.23-.21,3.42,3.42,0,0,1,.47-.36l.19-.14,0,0a4,4,0,0,1,.68-.36s0,0,0,0V949Zm0,0v4h24v29.37a4,4,0,0,1,.36-.35,1.5,1.5,0,0,1,.23-.21,3.42,3.42,0,0,1,.47-.36l.19-.14,0,0a4,4,0,0,1,.68-.36s0,0,0,0V949Zm0,0v4h24v29.37a4,4,0,0,1,.36-.35,1.5,1.5,0,0,1,.23-.21,3.42,3.42,0,0,1,.47-.36l.19-.14,0,0a4,4,0,0,1,.68-.36s0,0,0,0V949Zm0,0v4h24v29.37a4,4,0,0,1,.36-.35,1.5,1.5,0,0,1,.23-.21,3.42,3.42,0,0,1,.47-.36l.19-.14,0,0a4,4,0,0,1,.68-.36s0,0,0,0V949Zm0,0v4h24v29.37a4,4,0,0,1,.36-.35,1.5,1.5,0,0,1,.23-.21,3.42,3.42,0,0,1,.47-.36l.19-.14,0,0a4,4,0,0,1,.68-.36s0,0,0,0V949Zm0,0v4h24v29.37a4,4,0,0,1,.36-.35,1.5,1.5,0,0,1,.23-.21,3.42,3.42,0,0,1,.47-.36l.19-.14,0,0a4,4,0,0,1,.68-.36s0,0,0,0V949Zm0,0v4h24v29.37a4,4,0,0,1,.36-.35,1.5,1.5,0,0,1,.23-.21,3.42,3.42,0,0,1,.47-.36l.19-.14,0,0a4,4,0,0,1,.68-.36s0,0,0,0V949Zm0,0v4h24v29.37a4,4,0,0,1,.36-.35,1.5,1.5,0,0,1,.23-.21,3.42,3.42,0,0,1,.47-.36l.19-.14,0,0a4,4,0,0,1,.68-.36s0,0,0,0V949Zm0,0v4h24v29.37a4,4,0,0,1,.36-.35,1.5,1.5,0,0,1,.23-.21,3.42,3.42,0,0,1,.47-.36l.19-.14,0,0a4,4,0,0,1,.68-.36s0,0,0,0V949Zm0,0v4h24v29.37a4,4,0,0,1,.36-.35,1.5,1.5,0,0,1,.23-.21,3.42,3.42,0,0,1,.47-.36l.19-.14,0,0a4,4,0,0,1,.68-.36s0,0,0,0V949Zm0,0v4h24v29.37a4,4,0,0,1,.36-.35,1.5,1.5,0,0,1,.23-.21,3.42,3.42,0,0,1,.47-.36l.19-.14,0,0a4,4,0,0,1,.68-.36s0,0,0,0V949Zm0,0v4h24v29.37a4,4,0,0,1,.36-.35,1.5,1.5,0,0,1,.23-.21,3.42,3.42,0,0,1,.47-.36l.19-.14,0,0a4,4,0,0,1,.68-.36s0,0,0,0V949Zm0,0v4h24v29.37a4,4,0,0,1,.36-.35,1.5,1.5,0,0,1,.23-.21,3.42,3.42,0,0,1,.47-.36l.19-.14,0,0a4,4,0,0,1,.68-.36s0,0,0,0V949Zm0,0v4h24v29.37a4,4,0,0,1,.36-.35,1.5,1.5,0,0,1,.23-.21,3.42,3.42,0,0,1,.47-.36l.19-.14,0,0a4,4,0,0,1,.68-.36s0,0,0,0V949Zm0,0v4h24v29.37a4,4,0,0,1,.36-.35,1.5,1.5,0,0,1,.23-.21,3.42,3.42,0,0,1,.47-.36l.19-.14,0,0a4,4,0,0,1,.68-.36s0,0,0,0V949Zm0,0v4h24v29.37a4,4,0,0,1,.36-.35,1.5,1.5,0,0,1,.23-.21,3.42,3.42,0,0,1,.47-.36l.19-.14,0,0a4,4,0,0,1,.68-.36s0,0,0,0V949Zm0,0v4h24v29.37a4,4,0,0,1,.36-.35,1.5,1.5,0,0,1,.23-.21,3.42,3.42,0,0,1,.47-.36l.19-.14,0,0a4,4,0,0,1,.68-.36s0,0,0,0V949Zm0,0v4h24v29.37a4,4,0,0,1,.36-.35,1.5,1.5,0,0,1,.23-.21,3.42,3.42,0,0,1,.47-.36l.19-.14,0,0a4,4,0,0,1,.68-.36s0,0,0,0V949Zm0,0v4h24v29.37a4,4,0,0,1,.36-.35,1.5,1.5,0,0,1,.23-.21,3.42,3.42,0,0,1,.47-.36l.19-.14,0,0a4,4,0,0,1,.68-.36s0,0,0,0V949Zm0,0v4h24v29.37a4,4,0,0,1,.36-.35,1.5,1.5,0,0,1,.23-.21,3.42,3.42,0,0,1,.47-.36l.19-.14,0,0a4,4,0,0,1,.68-.36s0,0,0,0V949Zm0,0v4h24v29.37a4,4,0,0,1,.36-.35,1.5,1.5,0,0,1,.23-.21,3.42,3.42,0,0,1,.47-.36l.19-.14,0,0a4,4,0,0,1,.68-.36s0,0,0,0V949Zm0,0v4h24v29.37a4,4,0,0,1,.36-.35,1.5,1.5,0,0,1,.23-.21,3.42,3.42,0,0,1,.47-.36l.19-.14,0,0a4,4,0,0,1,.68-.36s0,0,0,0V949Zm0,0v4h24v29.37a4,4,0,0,1,.36-.35,1.5,1.5,0,0,1,.23-.21,3.42,3.42,0,0,1,.47-.36l.19-.14,0,0a4,4,0,0,1,.68-.36s0,0,0,0V949Zm0,0v4h24v29.37a4,4,0,0,1,.36-.35,1.5,1.5,0,0,1,.23-.21,3.42,3.42,0,0,1,.47-.36l.19-.14,0,0a4,4,0,0,1,.68-.36s0,0,0,0V949Zm0,0v4h24v29.37a4,4,0,0,1,.36-.35,1.5,1.5,0,0,1,.23-.21,3.42,3.42,0,0,1,.47-.36l.19-.14,0,0a4,4,0,0,1,.68-.36s0,0,0,0V949Zm0,0v4h24v29.37a4,4,0,0,1,.36-.35,1.5,1.5,0,0,1,.23-.21,3.42,3.42,0,0,1,.47-.36l.19-.14,0,0a4,4,0,0,1,.68-.36s0,0,0,0V949Zm0,0v4h24v29.37a4,4,0,0,1,.36-.35,1.5,1.5,0,0,1,.23-.21,3.42,3.42,0,0,1,.47-.36l.19-.14,0,0a4,4,0,0,1,.68-.36s0,0,0,0V949Zm0,0v4h24v29.37a4,4,0,0,1,.36-.35,1.5,1.5,0,0,1,.23-.21,3.42,3.42,0,0,1,.47-.36l.19-.14,0,0a4,4,0,0,1,.68-.36s0,0,0,0V949Zm0,0v4h24v29.37a4,4,0,0,1,.36-.35,1.5,1.5,0,0,1,.23-.21,3.42,3.42,0,0,1,.47-.36l.19-.14,0,0a4,4,0,0,1,.68-.36s0,0,0,0V949Zm0,0v4h24v29.37a4,4,0,0,1,.36-.35,1.5,1.5,0,0,1,.23-.21,3.42,3.42,0,0,1,.47-.36l.19-.14,0,0a4,4,0,0,1,.68-.36s0,0,0,0V949Zm0,0v4h24v29.37a4,4,0,0,1,.36-.35,1.5,1.5,0,0,1,.23-.21,3.42,3.42,0,0,1,.47-.36l.19-.14,0,0a4,4,0,0,1,.68-.36s0,0,0,0V949Zm0,0v4h24v29.37a4,4,0,0,1,.36-.35,1.5,1.5,0,0,1,.23-.21,3.42,3.42,0,0,1,.47-.36l.19-.14,0,0a4,4,0,0,1,.68-.36s0,0,0,0V949Zm0,0v4h24v29.37a4,4,0,0,1,.36-.35,1.5,1.5,0,0,1,.23-.21,3.42,3.42,0,0,1,.47-.36l.19-.14,0,0a4,4,0,0,1,.68-.36s0,0,0,0V949Zm-23,0v53h51V949Zm47,49h-43V953h43Zm-24-49v4h24v29.37a4,4,0,0,1,.36-.35,1.5,1.5,0,0,1,.23-.21,3.42,3.42,0,0,1,.47-.36l.19-.14,0,0a4,4,0,0,1,.68-.36s0,0,0,0V949Zm0,0v4h24v29.37a4,4,0,0,1,.36-.35,1.5,1.5,0,0,1,.23-.21,3.42,3.42,0,0,1,.47-.36l.19-.14,0,0a4,4,0,0,1,.68-.36s0,0,0,0V949Zm0,0v4h24v29.37a4,4,0,0,1,.36-.35,1.5,1.5,0,0,1,.23-.21,3.42,3.42,0,0,1,.47-.36l.19-.14,0,0a4,4,0,0,1,.68-.36s0,0,0,0V949Zm0,0v4h24v29.37a4,4,0,0,1,.36-.35,1.5,1.5,0,0,1,.23-.21,3.42,3.42,0,0,1,.47-.36l.19-.14,0,0a4,4,0,0,1,.68-.36s0,0,0,0V949Zm0,0v4h24v29.37a4,4,0,0,1,.36-.35,1.5,1.5,0,0,1,.23-.21,3.42,3.42,0,0,1,.47-.36l.19-.14,0,0a4,4,0,0,1,.68-.36s0,0,0,0V949Zm0,0v4h24v29.37a4,4,0,0,1,.36-.35,1.5,1.5,0,0,1,.23-.21,3.42,3.42,0,0,1,.47-.36l.19-.14,0,0a4,4,0,0,1,.68-.36s0,0,0,0V949Zm0,0v4h24v29.37a4,4,0,0,1,.36-.35,1.5,1.5,0,0,1,.23-.21,3.42,3.42,0,0,1,.47-.36l.19-.14,0,0a4,4,0,0,1,.68-.36s0,0,0,0V949Zm0,0v4h24v29.37a4,4,0,0,1,.36-.35,1.5,1.5,0,0,1,.23-.21,3.42,3.42,0,0,1,.47-.36l.19-.14,0,0a4,4,0,0,1,.68-.36s0,0,0,0V949Zm0,0v4h24v29.37a4,4,0,0,1,.36-.35,1.5,1.5,0,0,1,.23-.21,3.42,3.42,0,0,1,.47-.36l.19-.14,0,0a4,4,0,0,1,.68-.36s0,0,0,0V949Zm0,0v4h24v29.37a4,4,0,0,1,.36-.35,1.5,1.5,0,0,1,.23-.21,3.42,3.42,0,0,1,.47-.36l.19-.14,0,0a4,4,0,0,1,.68-.36s0,0,0,0V949Zm0,0v4h24v29.37a4,4,0,0,1,.36-.35,1.5,1.5,0,0,1,.23-.21,3.42,3.42,0,0,1,.47-.36l.19-.14,0,0a4,4,0,0,1,.68-.36s0,0,0,0V949Zm0,0v4h24v29.37a4,4,0,0,1,.36-.35,1.5,1.5,0,0,1,.23-.21,3.42,3.42,0,0,1,.47-.36l.19-.14,0,0a4,4,0,0,1,.68-.36s0,0,0,0V949Zm0,0v4h24v29.37a4,4,0,0,1,.36-.35,1.5,1.5,0,0,1,.23-.21,3.42,3.42,0,0,1,.47-.36l.19-.14,0,0a4,4,0,0,1,.68-.36s0,0,0,0V949Zm0,0v4h24v29.37a4,4,0,0,1,.36-.35,1.5,1.5,0,0,1,.23-.21,3.42,3.42,0,0,1,.47-.36l.19-.14,0,0a4,4,0,0,1,.68-.36s0,0,0,0V949Zm0,0v4h24v29.37a4,4,0,0,1,.36-.35,1.5,1.5,0,0,1,.23-.21,3.42,3.42,0,0,1,.47-.36l.19-.14,0,0a4,4,0,0,1,.68-.36s0,0,0,0V949Zm0,0v4h24v29.37a4,4,0,0,1,.36-.35,1.5,1.5,0,0,1,.23-.21,3.42,3.42,0,0,1,.47-.36l.19-.14,0,0a4,4,0,0,1,.68-.36s0,0,0,0V949Zm0,0v4h24v29.37a4,4,0,0,1,.36-.35,1.5,1.5,0,0,1,.23-.21,3.42,3.42,0,0,1,.47-.36l.19-.14,0,0a4,4,0,0,1,.68-.36s0,0,0,0V949Zm0,0v4h24v29.37a4,4,0,0,1,.36-.35,1.5,1.5,0,0,1,.23-.21,3.42,3.42,0,0,1,.47-.36l.19-.14,0,0a4,4,0,0,1,.68-.36s0,0,0,0V949Zm0,0v4h24v29.37a4,4,0,0,1,.36-.35,1.5,1.5,0,0,1,.23-.21,3.42,3.42,0,0,1,.47-.36l.19-.14,0,0a4,4,0,0,1,.68-.36s0,0,0,0V949Zm0,0v4h24v29.37a4,4,0,0,1,.36-.35,1.5,1.5,0,0,1,.23-.21,3.42,3.42,0,0,1,.47-.36l.19-.14,0,0a4,4,0,0,1,.68-.36s0,0,0,0V949Zm0,0v4h24v29.37a4,4,0,0,1,.36-.35,1.5,1.5,0,0,1,.23-.21,3.42,3.42,0,0,1,.47-.36l.19-.14,0,0a4,4,0,0,1,.68-.36s0,0,0,0V949Zm0,0v4h24v29.37a4,4,0,0,1,.36-.35,1.5,1.5,0,0,1,.23-.21,3.42,3.42,0,0,1,.47-.36l.19-.14,0,0a4,4,0,0,1,.68-.36s0,0,0,0V949Zm0,0v4h24v29.37a4,4,0,0,1,.36-.35,1.5,1.5,0,0,1,.23-.21,3.42,3.42,0,0,1,.47-.36l.19-.14,0,0a4,4,0,0,1,.68-.36s0,0,0,0V949Zm0,0v4h24v29.37a4,4,0,0,1,.36-.35,1.5,1.5,0,0,1,.23-.21,3.42,3.42,0,0,1,.47-.36l.19-.14,0,0a4,4,0,0,1,.68-.36s0,0,0,0V949Zm0,0v4h24v29.37a4,4,0,0,1,.36-.35,1.5,1.5,0,0,1,.23-.21,3.42,3.42,0,0,1,.47-.36l.19-.14,0,0a4,4,0,0,1,.68-.36s0,0,0,0V949Zm0,0v4h24v29.37a4,4,0,0,1,.36-.35,1.5,1.5,0,0,1,.23-.21,3.42,3.42,0,0,1,.47-.36l.19-.14,0,0a4,4,0,0,1,.68-.36s0,0,0,0V949Zm0,0v4h24v29.37a4,4,0,0,1,.36-.35,1.5,1.5,0,0,1,.23-.21,3.42,3.42,0,0,1,.47-.36l.19-.14,0,0a4,4,0,0,1,.68-.36s0,0,0,0V949Zm0,0v4h24v29.37a4,4,0,0,1,.36-.35,1.5,1.5,0,0,1,.23-.21,3.42,3.42,0,0,1,.47-.36l.19-.14,0,0a4,4,0,0,1,.68-.36s0,0,0,0V949Zm0,0v4h24v29.37a4,4,0,0,1,.36-.35,1.5,1.5,0,0,1,.23-.21,3.42,3.42,0,0,1,.47-.36l.19-.14,0,0a4,4,0,0,1,.68-.36s0,0,0,0V949Zm0,0v4h24v29.37a4,4,0,0,1,.36-.35,1.5,1.5,0,0,1,.23-.21,3.42,3.42,0,0,1,.47-.36l.19-.14,0,0a4,4,0,0,1,.68-.36s0,0,0,0V949Zm0,0v4h24v29.37a4,4,0,0,1,.36-.35,1.5,1.5,0,0,1,.23-.21,3.42,3.42,0,0,1,.47-.36l.19-.14,0,0a4,4,0,0,1,.68-.36s0,0,0,0V949Zm0,0v4h24v29.37a4,4,0,0,1,.36-.35,1.5,1.5,0,0,1,.23-.21,3.42,3.42,0,0,1,.47-.36l.19-.14,0,0a4,4,0,0,1,.68-.36s0,0,0,0V949Zm0,0v4h24v29.37a4,4,0,0,1,.36-.35,1.5,1.5,0,0,1,.23-.21,3.42,3.42,0,0,1,.47-.36l.19-.14,0,0a4,4,0,0,1,.68-.36s0,0,0,0V949Zm0,0v4h24v29.37a4,4,0,0,1,.36-.35,1.5,1.5,0,0,1,.23-.21,3.42,3.42,0,0,1,.47-.36l.19-.14,0,0a4,4,0,0,1,.68-.36s0,0,0,0V949Zm0,0v4h24v29.37a4,4,0,0,1,.36-.35,1.5,1.5,0,0,1,.23-.21,3.42,3.42,0,0,1,.47-.36l.19-.14,0,0a4,4,0,0,1,.68-.36s0,0,0,0V949Zm0,0v4h24v29.37a4,4,0,0,1,.36-.35,1.5,1.5,0,0,1,.23-.21,3.42,3.42,0,0,1,.47-.36l.19-.14,0,0a4,4,0,0,1,.68-.36s0,0,0,0V949Zm0,0v4h24v29.37a4,4,0,0,1,.36-.35,1.5,1.5,0,0,1,.23-.21,3.42,3.42,0,0,1,.47-.36l.19-.14,0,0a4,4,0,0,1,.68-.36s0,0,0,0V949Zm0,0v4h24v29.37a4,4,0,0,1,.36-.35,1.5,1.5,0,0,1,.23-.21,3.42,3.42,0,0,1,.47-.36l.19-.14,0,0a4,4,0,0,1,.68-.36s0,0,0,0V949Zm0,0v4h24v29.37a4,4,0,0,1,.36-.35,1.5,1.5,0,0,1,.23-.21,3.42,3.42,0,0,1,.47-.36l.19-.14,0,0a4,4,0,0,1,.68-.36s0,0,0,0V949Zm0,0v4h24v29.37a4,4,0,0,1,.36-.35,1.5,1.5,0,0,1,.23-.21,3.42,3.42,0,0,1,.47-.36l.19-.14,0,0a4,4,0,0,1,.68-.36s0,0,0,0V949Zm0,0v4h24v29.37a4,4,0,0,1,.36-.35,1.5,1.5,0,0,1,.23-.21,3.42,3.42,0,0,1,.47-.36l.19-.14,0,0a4,4,0,0,1,.68-.36s0,0,0,0V949Zm0,0v4h24v29.37a4,4,0,0,1,.36-.35,1.5,1.5,0,0,1,.23-.21,3.42,3.42,0,0,1,.47-.36l.19-.14,0,0a4,4,0,0,1,.68-.36s0,0,0,0V949Zm0,0v4h24v29.37a4,4,0,0,1,.36-.35,1.5,1.5,0,0,1,.23-.21,3.42,3.42,0,0,1,.47-.36l.19-.14,0,0a4,4,0,0,1,.68-.36s0,0,0,0V949Zm0,0v4h24v29.37a4,4,0,0,1,.36-.35,1.5,1.5,0,0,1,.23-.21,3.42,3.42,0,0,1,.47-.36l.19-.14,0,0a4,4,0,0,1,.68-.36s0,0,0,0V949Zm0,0v4h24v29.37a4,4,0,0,1,.36-.35,1.5,1.5,0,0,1,.23-.21,3.42,3.42,0,0,1,.47-.36l.19-.14,0,0a4,4,0,0,1,.68-.36s0,0,0,0V949Zm0,0v4h24v29.37a4,4,0,0,1,.36-.35,1.5,1.5,0,0,1,.23-.21,3.42,3.42,0,0,1,.47-.36l.19-.14,0,0a4,4,0,0,1,.68-.36s0,0,0,0V949Zm0,0v4h24v29.37a4,4,0,0,1,.36-.35,1.5,1.5,0,0,1,.23-.21,3.42,3.42,0,0,1,.47-.36l.19-.14,0,0a4,4,0,0,1,.68-.36s0,0,0,0V949Zm0,0v4h24v29.37a4,4,0,0,1,.36-.35,1.5,1.5,0,0,1,.23-.21,3.42,3.42,0,0,1,.47-.36l.19-.14,0,0a4,4,0,0,1,.68-.36s0,0,0,0V949Zm0,0v4h24v29.37a4,4,0,0,1,.36-.35,1.5,1.5,0,0,1,.23-.21,3.42,3.42,0,0,1,.47-.36l.19-.14,0,0a4,4,0,0,1,.68-.36s0,0,0,0V949Zm0,0v4h24v29.37a4,4,0,0,1,.36-.35,1.5,1.5,0,0,1,.23-.21,3.42,3.42,0,0,1,.47-.36l.19-.14,0,0a4,4,0,0,1,.68-.36s0,0,0,0V949Zm0,0v4h24v29.37a4,4,0,0,1,.36-.35,1.5,1.5,0,0,1,.23-.21,3.42,3.42,0,0,1,.47-.36l.19-.14,0,0a4,4,0,0,1,.68-.36s0,0,0,0V949Zm0,0v4h24v29.37a4,4,0,0,1,.36-.35,1.5,1.5,0,0,1,.23-.21,3.42,3.42,0,0,1,.47-.36l.19-.14,0,0a4,4,0,0,1,.68-.36s0,0,0,0V949Zm0,0v4h24v29.37a4,4,0,0,1,.36-.35,1.5,1.5,0,0,1,.23-.21,3.42,3.42,0,0,1,.47-.36l.19-.14,0,0a4,4,0,0,1,.68-.36s0,0,0,0V949Zm0,0v4h24v29.37a4,4,0,0,1,.36-.35,1.5,1.5,0,0,1,.23-.21,3.42,3.42,0,0,1,.47-.36l.19-.14,0,0a4,4,0,0,1,.68-.36s0,0,0,0V949Zm0,0v4h24v29.37a4,4,0,0,1,.36-.35,1.5,1.5,0,0,1,.23-.21,3.42,3.42,0,0,1,.47-.36l.19-.14,0,0a4,4,0,0,1,.68-.36s0,0,0,0V949Zm0,0v4h24v29.37a4,4,0,0,1,.36-.35,1.5,1.5,0,0,1,.23-.21,3.42,3.42,0,0,1,.47-.36l.19-.14,0,0a4,4,0,0,1,.68-.36s0,0,0,0V949Zm0,0v4h24v29.37a4,4,0,0,1,.36-.35,1.5,1.5,0,0,1,.23-.21,3.42,3.42,0,0,1,.47-.36l.19-.14,0,0a4,4,0,0,1,.68-.36s0,0,0,0V949Zm0,0v4h24v29.37a4,4,0,0,1,.36-.35,1.5,1.5,0,0,1,.23-.21,3.42,3.42,0,0,1,.47-.36l.19-.14,0,0a4,4,0,0,1,.68-.36s0,0,0,0V949Zm0,0v4h24v29.37a4,4,0,0,1,.36-.35,1.5,1.5,0,0,1,.23-.21,3.42,3.42,0,0,1,.47-.36l.19-.14,0,0a4,4,0,0,1,.68-.36s0,0,0,0V949Zm0,0v4h24v29.37a4,4,0,0,1,.36-.35,1.5,1.5,0,0,1,.23-.21,3.42,3.42,0,0,1,.47-.36l.19-.14,0,0a4,4,0,0,1,.68-.36s0,0,0,0V949Z"/><path class="cls-3" d="M1669.75,877v53h51V877Zm47,49h-43V881h43Z"/><path class="cls-3" d="M1765.75,806v4h20v45h-20v4h24V806Z"/><path class="cls-3" d="M1765.75,878v4h20v45h-20v4h24V878Z"/><path class="cls-3" d="M1765.75,1021v4h20v45h-20v4h24v-53Z"/><path class="cls-3" d="M1765.75,1090v4h20v45h-20v4h24v-53Z"/><path class="cls-3" d="M1765.75,1162v4h20v45h-20v4h24v-53Z"/><path class="cls-3" d="M1765.75,1234v4h20v45h-20v4h24v-53Z"/><path class="cls-3" d="M1765.75,1304v4h20v45h-20v4h24v-53Z"/><path class="cls-3" d="M1669.75,1446v53h44.53q2.13-3,4.21-6.07c.76-1.1,1.52-2.2,2.26-3.31V1446Zm47,49h-43v-45h43Z"/><path class="cls-5" d="M1224.75,780.15V1020q-2-2-4-4V781.81l-32-32-38.55-38.56h5.64l32.91,32.9Z"/><path class="cls-5" d="M1250.75,732.13v317q-2-2.58-4-5.08V733.83l-23.39-22.58h5.77Z"/><polygon class="cls-5" points="1388.16 1169.57 1385.34 1172.39 1382.03 1169.08 1379.04 1166.09 1376.21 1163.26 1333.37 1120.43 1330.55 1117.61 1308.08 1095.14 1282.25 1069.31 1279.43 1066.48 1273.75 1060.81 1273.75 711.25 1277.75 711.25 1277.75 1059.15 1308.98 1090.38 1333.41 1114.82 1336.24 1117.64 1379.11 1160.52 1388.16 1169.57"/><polygon class="cls-5" points="1400.75 1121.22 1400.75 1126.82 1392.75 1118.98 1363.91 1090.72 1361.06 1087.92 1337.34 1064.68 1334.47 1061.88 1312.69 1040.53 1309.83 1037.73 1308.08 1036.01 1304.08 1032.09 1301.25 1029.32 1301.25 836.17 1310.56 826.62 1313.35 823.75 1333.75 802.81 1337.75 798.7 1357.75 778.17 1357.75 667.78 1341.6 650.92 1341.6 645.16 1361.75 666.18 1361.75 779.79 1339.05 803.09 1337.75 804.43 1336.26 805.95 1333.75 808.53 1315.75 827.01 1311.75 831.12 1305.25 837.79 1305.25 1027.64 1308.08 1030.41 1312.74 1034.98 1315.6 1037.78 1337.44 1059.18 1340.31 1061.99 1363.92 1085.13 1366.78 1087.93 1392.75 1113.38 1400.75 1121.22"/><path class="cls-5" d="M1339.75,1196v91.88q-1.74-13.91-4-27.33V1198l-17.85-13c-.66-2.16-1.35-4.3-2.06-6.44Z"/><path class="cls-5" d="M1400.15,788.41l-1.4,1.38-4,3.93-2,2-10,9.82-4,3.93-16.61,16.32-2.85,2.8-15.54,15.27v215.05l-3.44,3.12-3,2.69-28.36,25.7-.9.82v65.4q-1.61-4.26-3.24-8.41c-.25-.64-.5-1.28-.76-1.92v-56.84l2.07-1.88,1.93-1.75,26.39-23.92,3-2.7,2.31-2.09v-215l16.68-16.39,2.86-2.8,19.46-19.13,4-3.93,10-9.82,2-2,2.6-2.55Z"/><polygon class="cls-5" points="1369.75 1510.15 1382.75 1523.15 1392.75 1533.16 1400.75 1541.16 1400.75 1546.8 1392.75 1538.8 1382.75 1528.81 1365.75 1511.81 1365.75 1279.15 1369.75 1275.15 1392.75 1252.16 1400.75 1244.16 1400.75 1249.8 1392.75 1257.8 1369.75 1280.81 1369.75 1510.15"/><path class="cls-5" d="M1364.75,1556.08V1610h-4v-52.1l-15.13-13.51c0-1.76.07-3.52.08-5.29Z"/><polygon class="cls-5" points="1400.75 1643.16 1400.75 1648.8 1377.76 1671.79 1376.42 1673.13 1372.16 1677.39 1369.34 1674.57 1373.75 1670.16 1373.91 1670 1376.45 1667.46 1400.75 1643.16"/><path class="cls-5" d="M1326.75,1671.8v136.08l-4,1.61V1683.81Q1324.85,1677.9,1326.75,1671.8Z"/><path class="cls-5" d="M1400.75,1705.35v5.73l-23,23.59-.1.1-4.89,5v.37h0l.25,17.59h0l.12,8.88.11,7.49h0l.19,13.2c-1.32.64-2.64,1.27-4,1.88l-.19-13.18-.45-31.54-.08-5.86v-.46l5.51-5.65,4-4.07Z"/><polygon class="cls-5" points="1496.16 1655.39 1492.32 1659.23 1442.75 1708.8 1442.75 1703.16 1493.34 1652.57 1496.16 1655.39"/><polygon class="cls-5" points="1470.75 1565.19 1470.75 1641.85 1442.75 1668.04 1442.75 1662.56 1466.75 1640.11 1466.75 1566.77 1442.75 1541.18 1442.75 1535.33 1467.34 1561.55 1470.75 1565.19"/><polygon class="cls-5" points="1459.75 1473.14 1460.75 1474.12 1464.75 1478.05 1507.75 1520.25 1507.75 1525.86 1464.75 1483.65 1460.75 1479.73 1455.75 1474.82 1455.75 1294.15 1464.75 1285.15 1484.75 1265.16 1507.75 1242.16 1507.75 1247.8 1488.75 1266.8 1484.75 1270.81 1459.75 1295.81 1459.75 1473.14"/><polygon class="cls-5" points="1503.75 1435.19 1507.75 1439.43 1507.75 1445.24 1499.75 1436.77 1499.75 1296.02 1507.75 1289.62 1507.75 1294.74 1503.75 1297.94 1503.75 1435.19"/><polygon class="cls-5" points="1585.75 1454.12 1585.75 1601.98 1581.75 1601.98 1581.75 1455.84 1554.57 1429.98 1551.68 1427.23 1549.75 1425.4 1549.75 1419.88 1554.51 1424.4 1557.4 1427.15 1585.75 1454.12"/><polygon class="cls-5" points="1560.75 1493.11 1560.75 1625.98 1556.75 1625.98 1556.75 1494.85 1549.75 1488.29 1549.75 1482.8 1560.75 1493.11"/><polygon class="cls-5" points="1588.75 1299.48 1616.75 1271.98 1616.75 1277.59 1589.47 1304.38 1588.75 1305.09 1586.62 1307.18 1584.75 1309.02 1573.75 1319.82 1573.75 1396.12 1578.38 1400.52 1581.29 1403.27 1612.75 1433.12 1612.75 1576.98 1608.75 1576.98 1608.75 1434.84 1578.46 1406.1 1575.55 1403.35 1569.75 1397.84 1569.75 1318.14 1583.81 1304.33 1584.75 1303.41 1586.66 1301.53 1588.75 1299.48"/><polygon class="cls-5" points="1608.16 1233.39 1603.15 1238.4 1549.75 1291.8 1549.75 1286.16 1605.34 1230.57 1608.16 1233.39"/><polygon class="cls-5" points="1581.75 1022.13 1581.75 1219.83 1555.75 1245.06 1551.75 1248.95 1549.75 1250.89 1549.75 1245.31 1551.75 1243.37 1555.75 1239.48 1577.75 1218.13 1577.75 1023.83 1555.75 1002.48 1551.75 998.59 1549.75 996.65 1549.75 991.07 1551.75 993.01 1555.75 996.9 1581.75 1022.13"/><polygon class="cls-5" points="1616.75 467.34 1616.75 473.19 1615.75 474.26 1607.75 482.84 1594.75 496.77 1594.75 620.82 1578.24 636.92 1575.38 639.72 1553.75 660.82 1553.75 740.15 1589.75 776.15 1589.75 918.85 1555.75 950.53 1551.75 954.25 1549.75 956.12 1549.75 950.66 1551.75 948.8 1555.75 945.07 1585.75 917.11 1585.75 777.81 1549.75 741.81 1549.75 659.14 1572.41 637.03 1575.27 634.24 1590.75 619.14 1590.75 495.19 1607.75 476.98 1615.75 468.41 1616.75 467.34"/><polygon class="cls-5" points="1570.7 475.05 1570.7 596.81 1553.21 614.34 1550.39 617.17 1549.75 617.8 1549.75 612.14 1550.23 611.65 1566.7 595.15 1566.7 475.05 1570.7 475.05"/><polygon class="cls-5" points="1577.75 354.98 1577.75 382.85 1549.75 409.04 1549.75 403.56 1573.75 381.11 1573.75 354.98 1577.75 354.98"/><polygon class="cls-5" points="1607.16 382.39 1602.34 387.21 1549.75 439.8 1549.75 434.16 1604.34 379.57 1607.16 382.39"/><polygon class="cls-5" points="1507.75 414.72 1507.75 419.81 1503.75 422.95 1503.75 491.98 1499.75 491.98 1499.75 421.01 1507.75 414.72"/><path class="cls-5" d="M1456.75,390.79v95.4l2,2.12,4,4.25c12,12.73,26.06,27.54,34.26,36,.21.23.43.45.64.66.78.81,1.5,1.55,2.16,2.21,2.09,2.13,3.49,3.5,3.95,3.86a1.81,1.81,0,0,0-1-.29v4c-.68,0-1.07,0-5.72-4.68l-2.07-2.1-.74-.76c-3.7-3.8-9.15-9.5-17.3-18.08-5-5.29-10-10.6-14.17-15l-4-4.25-5.46-5.79-.54-.58v-98.6l10-10.35,45-46.58V338l-45,46.58Z"/><polygon class="cls-5" points="1400.75 546.16 1400.75 551.8 1382.75 533.8 1378.75 529.81 1348.75 499.81 1348.75 259.78 1303.2 211.54 1298.3 206.35 1301.2 203.61 1305.67 208.34 1351.75 257.13 1352.75 258.19 1352.75 498.15 1382.75 528.15 1400.75 546.16"/><polygon class="cls-5" points="1400.75 592.04 1400.75 597.72 1392.33 589.19 1382.75 579.48 1382.66 579.38 1378.75 575.42 1341.6 537.76 1341.6 532.08 1378.75 569.74 1382.75 573.8 1400.75 592.04"/><polygon class="cls-5" points="1400.75 644.73 1400.75 650.28 1382.75 632.96 1378.75 629.11 1341.6 593.35 1341.6 587.8 1378.75 623.55 1382.75 627.4 1400.75 644.73"/><polygon class="cls-5" points="1507.75 600.21 1507.75 605.81 1501.35 599.5 1491.75 590.03 1487.75 586.08 1442.75 541.7 1442.75 536.1 1487.75 580.48 1491.75 584.43 1504.31 596.81 1507.75 600.21"/><polygon class="cls-5" points="1473.75 621.15 1473.75 827.82 1457.75 843.39 1453.75 847.28 1442.75 857.98 1442.75 852.41 1453.75 841.71 1457.75 837.82 1469.75 826.14 1469.75 622.81 1442.75 595.8 1442.75 590.16 1473.75 621.15"/><polygon class="cls-5" points="1400.75 1083.31 1400.75 1088.87 1392.75 1081.09 1383.28 1071.87 1380.42 1069.09 1365.75 1054.82 1365.75 861.98 1369.75 861.98 1369.75 1053.14 1383.28 1066.3 1386.14 1069.09 1392.75 1075.52 1400.75 1083.31"/><polygon class="cls-5" points="1477.75 1104.12 1477.75 1204.27 1477.01 1205.02 1468.75 1213.39 1464.75 1217.44 1460.75 1221.49 1442.75 1239.72 1442.75 1234.03 1460.75 1215.79 1464.75 1211.74 1468.75 1207.69 1473.75 1202.62 1473.75 1105.84 1448.1 1081.51 1445.19 1078.75 1442.75 1076.43 1442.75 1070.91 1448.18 1076.07 1451.09 1078.83 1477.75 1104.12"/><polygon class="cls-5" points="1507.75 1680.34 1507.75 1686.05 1484.44 1709.74 1479.75 1714.51 1475.75 1718.57 1461.18 1733.38 1458.32 1730.58 1468.08 1720.66 1475.75 1712.86 1479.75 1708.8 1507.75 1680.34"/><polygon class="cls-5" points="1673.75 1526.15 1673.75 1544.98 1669.75 1544.98 1669.75 1527.81 1658.75 1516.8 1658.75 1511.16 1672.75 1525.15 1673.75 1526.15"/><polygon class="cls-5" points="1705.75 1136.17 1705.75 1266.83 1692.75 1279.35 1688.98 1282.98 1688.75 1283.2 1688.2 1283.73 1685.32 1286.51 1684.83 1286.98 1658.75 1312.09 1658.75 1306.54 1679.06 1286.98 1682.52 1283.65 1683.21 1282.98 1685.4 1280.87 1688.75 1277.65 1692.75 1273.8 1701.75 1265.13 1701.75 1137.79 1692.75 1128.44 1688.75 1124.28 1682.75 1118.04 1678.75 1113.89 1658.75 1093.1 1658.75 1087.33 1678.75 1108.11 1682.75 1112.27 1688.75 1118.5 1692.75 1122.66 1705.75 1136.17"/><polygon class="cls-5" points="1665.75 1042.13 1669.75 1046 1673.75 1049.88 1678.75 1054.72 1682.75 1058.59 1688.75 1064.4 1692.75 1068.27 1694.51 1069.98 1698.64 1073.98 1723.75 1098.29 1723.75 1103.86 1692.89 1073.98 1692.75 1073.85 1688.76 1069.98 1688.75 1069.98 1688.75 1069.97 1682.75 1064.16 1678.75 1060.29 1673.75 1055.45 1669.75 1051.58 1661.75 1043.83 1661.75 896.15 1692.75 865.15 1706.43 851.48 1723.75 834.16 1723.75 839.8 1709.25 854.3 1692.75 870.81 1688.75 874.81 1686.58 876.98 1682.58 880.98 1673.75 889.81 1665.75 897.81 1665.75 1042.13"/><polygon class="cls-5" points="1697.75 696.14 1697.75 778.82 1692.75 783.7 1688.75 787.61 1658.75 816.9 1658.75 811.3 1688.75 782.02 1692.75 778.12 1693.75 777.14 1693.75 697.82 1692.75 696.84 1689.88 694.04 1682.75 687.07 1678.75 683.15 1658.75 663.6 1658.75 658 1678.75 677.56 1682.75 681.47 1692.74 691.24 1695.6 694.04 1697.75 696.14"/><polygon class="cls-5" points="1684.75 637.15 1716.07 668.47 1718.89 671.3 1723.75 676.16 1723.75 681.8 1716.04 674.09 1713.21 671.26 1682.75 640.81 1680.75 638.81 1680.75 583.15 1694.75 569.15 1723.75 540.16 1723.75 545.8 1694.75 574.81 1684.75 584.81 1684.75 637.15"/><polygon class="cls-5" points="1703.13 494.42 1698.24 499.11 1694.75 502.46 1686.75 510.13 1682.75 513.97 1678.75 517.8 1664.75 531.23 1660.75 535.07 1658.75 536.99 1658.75 531.46 1660.75 529.54 1664.75 525.71 1678.75 512.28 1682.75 508.44 1686.75 504.6 1694.75 496.93 1695.89 495.84 1700.37 491.54 1703.13 494.42"/><polygon class="cls-5" points="1794.16 656.39 1789.72 660.83 1765.75 684.8 1765.75 679.16 1791.34 653.57 1794.16 656.39"/><polygon class="cls-5" points="1723.75 1279.24 1723.75 1284.93 1706.49 1302.4 1704.93 1303.98 1703.67 1305.25 1700.98 1307.98 1685.19 1323.95 1682.38 1326.79 1673.75 1335.53 1669.75 1339.58 1658.75 1350.71 1658.75 1345.01 1669.75 1333.88 1673.75 1329.84 1679.62 1323.89 1682.43 1321.05 1695.35 1307.98 1699.3 1303.98 1700.87 1302.39 1703.69 1299.54 1716.1 1286.98 1720.75 1282.28 1723.75 1279.24"/><polygon class="cls-5" points="1507.75 942.28 1507.75 1064.33 1503.75 1060.9 1503.75 947.28 1507.75 942.28"/><polygon class="cls-5" points="1400.75 831.16 1400.75 836.8 1398.75 838.81 1393.25 844.31 1393.25 963.98 1389.25 963.98 1389.25 842.65 1394.75 837.15 1398.75 833.16 1400.75 831.16"/><rect class="cls-5" x="1318.75" y="711.25" width="4" height="47.73"/><path class="cls-5" d="M1142.75,877V943.5l-4-3.51V877Z"/><polygon class="cls-5" points="1503.75 757.31 1507.75 762.64 1507.75 769.31 1499.75 758.65 1499.75 663.15 1507.75 655.16 1507.75 660.81 1503.75 664.81 1503.75 757.31"/><polygon class="cls-5" points="1723.75 721.87 1723.75 727.09 1722.75 727.92 1722.75 984.98 1718.75 984.98 1718.75 726.04 1723.75 721.87"/><path class="cls-5" d="M1096.57,617v5.64l-8.82-8.81-4-4-7-7,.06-6.51.71-72.69.05-5.54.18-18.27-4-4.08-26.4-27-2.79-2.86-37.43-38.27-2.8-2.87L955.8,375.07c1.48-.4,3-.77,4.51-1.11l47,48,2.8,2.87L1047.35,463l2.8,2.86,23.6,24.14,4,4.09,4,4.1-.23,23.76-.05,5.54-.65,66.84-.05,5,0,1.87,7,7Z"/><path class="cls-5" d="M1093.43,450.48l-14.37-14.37-1.31-1.3-1.51-1.52-2.49-2.48-33.5-33.5V379.4c1.36.54,2.69,1.12,4,1.73v14.52l33.5,33.5,1.27,1.28,2.82,2.82,10,10C1092.45,445.63,1093,448,1093.43,450.48Z"/><path class="cls-5" d="M1723.75,980.88v11a5.92,5.92,0,0,1-3,.52h0a6.05,6.05,0,0,1-4-10.09,4,4,0,0,1,.36-.35,1.5,1.5,0,0,1,.23-.21,3.42,3.42,0,0,1,.47-.36l.19-.13h0l0,0a4,4,0,0,1,.68-.36s0,0,0,0a5.49,5.49,0,0,1,2-.53,5.33,5.33,0,0,1,1,0,5.71,5.71,0,0,1,1,.17A5.64,5.64,0,0,1,1723.75,980.88Z"/><polygon class="cls-4" points="1457.75 1023.58 1507.75 1072.47 1507.75 1078.07 1457.75 1029.18 1453.75 1025.27 1442.75 1014.51 1442.75 1008.91 1453.75 1019.67 1457.75 1023.58"/><polygon class="cls-4" points="1507.75 517.37 1507.75 523.15 1502.99 528.1 1499.81 531.41 1497.03 534.3 1494.36 537.07 1491.75 539.79 1491.75 891.83 1457.75 924.55 1453.75 928.4 1442.75 938.98 1442.75 933.43 1453.75 922.85 1457.75 919 1487.75 890.13 1487.75 538.17 1494.22 531.44 1497.01 528.54 1507.75 517.37"/><polygon class="cls-4" points="1395.34 1071.39 1378.75 1054.81 1378.75 462.98 1382.75 462.98 1382.75 1053.15 1398.16 1068.57 1395.34 1071.39"/><rect class="cls-4" x="1304.08" y="876.98" width="4" height="223.5"/><path class="cls-4" d="M1243.75,742v298.45q-2-2.37-4-4.67V742Z"/><path class="cls-4" d="M1192.75,711.25V989.06c-1.33-1.27-2.66-2.52-4-3.78v-274Z"/><path class="cls-4" d="M1107.75,711.25V913.39l-4-3.35V711.25Z"/><polygon class="cls-4" points="1096.57 536.6 1096.57 542.19 1087.75 533.59 1083.75 529.69 1081.48 527.47 1077.75 523.84 1077.51 523.6 1073.75 519.94 1044.53 491.44 1038.35 485.41 1041.15 482.55 1047.26 488.51 1073.75 514.35 1077.56 518.06 1077.75 518.25 1081.53 521.93 1083.75 524.1 1087.75 528 1096.57 536.6"/><polygon class="cls-4" points="1682.75 468.98 1682.75 690.81 1658.75 714.8 1658.75 709.16 1678.75 689.15 1678.75 468.98 1682.75 468.98"/><polygon class="cls-4" points="1723.75 1320.03 1723.75 1325.76 1722.49 1324.47 1720.75 1322.69 1718.49 1320.38 1716.75 1318.61 1706.34 1307.98 1703.67 1305.25 1702.43 1303.98 1700.87 1302.39 1692.75 1294.1 1688.75 1290.01 1685.78 1286.98 1685.32 1286.51 1682.52 1283.65 1681.86 1282.98 1678.75 1279.8 1678.75 1041.79 1673.75 1036.59 1669.75 1032.43 1665.75 1028.27 1661.75 1024.11 1658.75 1020.99 1658.75 1015.21 1661.75 1018.33 1665.75 1022.49 1673.75 1030.81 1682.75 1040.17 1682.75 1278.16 1685.4 1280.87 1687.47 1282.98 1688.2 1283.73 1688.75 1284.29 1691.39 1286.98 1692.75 1288.37 1703.69 1299.54 1706.49 1302.4 1708.03 1303.98 1711.95 1307.98 1716.75 1312.88 1720.75 1316.97 1723.75 1320.03"/><path class="cls-4" d="M1722.49,1319.57v167.48l0,.06-1.7,2.49c-.74,1.11-1.5,2.21-2.26,3.31V1319.57Z"/><path class="cls-4" d="M1601.75,1596.15l15-15v5.66l-11,11v28.38q-2,1.94-4,3.84Z"/><polygon class="cls-4" points="1710.16 1493.39 1708.57 1494.98 1685.69 1517.86 1685.66 1517.9 1685.61 1517.95 1673.75 1529.8 1658.75 1544.8 1658.75 1539.16 1669.75 1528.16 1672.75 1525.15 1698.93 1498.98 1707.34 1490.57 1710.16 1493.39"/><path class="cls-4" d="M1570.17,1658.75c-1,.89-2,1.76-3,2.63l-8.65-8.39-8.73-8.46v-5.58l11.78,11.42Z"/><path class="cls-4" d="M1400.75,1692.08v5.7l-23-23.27-1.37-1.38-2.67-2.71-.13-.13-20.87-21.15-4-4.06-12.13-12.29c.31-1.58.62-3.17.92-4.77l11.21,11.36,4,4.06,23.7,24,2.8,2.84Z"/><polygon class="cls-4" points="1347.23 1768.32 1344.27 1765.64 1374.25 1732.57 1373.75 1670 1377.75 1669.96 1378.27 1734.1 1347.23 1768.32"/><rect class="cls-4" x="1296.25" y="1761.17" width="4" height="51.62" transform="translate(-887.87 1471.31) rotate(-45.78)"/><polygon class="cls-4" points="1400.75 1565.36 1400.75 1567.98 1399.46 1569.5 1392.75 1563.8 1378.75 1551.9 1378.75 1474.98 1382.75 1474.98 1382.75 1550.06 1392.75 1558.56 1400.75 1565.36"/><path class="cls-4" d="M1400.18,1397.58l-2.86,2.8-3.55-3.61h0l-1-1-8.45-8.58-14.55-14.79-4-4.06-21-21.3h0q-.14-3-.31-6l21.28,21.61,4,4.07,16.56,16.82.4.41h0l6,6.12Z"/><polygon class="cls-4" points="1400.75 1140.11 1400.75 1145.62 1399.06 1147.21 1392.75 1153.16 1387.18 1158.41 1381.94 1163.35 1379.04 1166.09 1369.75 1174.84 1369.75 1279.98 1365.75 1279.98 1365.75 1173.12 1376.21 1163.26 1379.11 1160.52 1383.79 1156.1 1392.75 1147.66 1396.96 1143.69 1400.75 1140.11"/><polygon class="cls-4" points="1507.75 1178.37 1507.75 1183.98 1477.75 1154.52 1473.75 1150.59 1468.75 1145.68 1464.75 1141.75 1461.35 1138.41 1464.15 1135.55 1464.24 1135.64 1473.75 1144.98 1477.75 1148.91 1507.75 1178.37"/><polygon class="cls-4" points="1468.75 1140.51 1468.75 1256.81 1460.75 1264.81 1442.75 1282.8 1442.75 1277.16 1460.75 1259.15 1464.75 1255.15 1464.75 1140.51 1468.75 1140.51"/><polygon class="cls-4" points="1588.75 1153.15 1588.75 1395.81 1587.07 1397.49 1584.23 1400.32 1581.29 1403.27 1578.46 1406.1 1557.4 1427.15 1549.75 1434.8 1549.75 1429.16 1554.51 1424.4 1575.55 1403.35 1578.38 1400.52 1581.34 1397.57 1584.17 1394.73 1584.75 1394.15 1584.75 1154.81 1577.75 1147.81 1555.75 1125.8 1549.75 1119.8 1549.75 1114.16 1555.75 1120.16 1577.75 1142.15 1588.75 1153.15"/><polygon class="cls-4" points="1382.15 845.39 1379.35 848.24 1378.75 847.65 1359.29 828.55 1356.43 825.75 1337.75 807.42 1336.26 805.95 1333.75 803.49 1333.75 711.25 1337.75 711.25 1337.75 801.81 1339.05 803.09 1359.29 822.95 1362.14 825.75 1378.75 842.05 1382.15 845.39"/><path class="cls-3" d="M1275.75,173.29v69.62c-1.32-1.71-2.65-3.39-4-5.06V172Z"/><path class="cls-3" d="M1355.75,204.44V407l-7,5.25-10,7.48c-.15-1.56-.31-3.1-.48-4.64l10.45-7.84,3-2.25V202.67C1353.09,203.25,1354.42,203.84,1355.75,204.44Z"/><polygon class="cls-6" points="1569.37 1042.91 1555.75 1044.14 1551.75 1044.5 1549.75 1044.68 1549.75 1019.25 1551.37 1016.12 1551.75 1016.69 1555.75 1022.64 1569.37 1042.91"/><path d="M1355.75,204.44c-1.33-.6-2.66-1.19-4-1.77q-6.28-2.79-12.62-5.47Q1308,184,1275.75,173.29l-4-1.33a866.57,866.57,0,0,0-96.18-25.53q-27.92-5.71-56.32-9.59l-.8-.11-.17,0-1.47-.2-.56-.08v0l1,.24,2,.5q3.34.84,6.66,1.79l2.53.73.54.17a194.88,194.88,0,0,1,19.87,7.1q13.62,5.28,26.45,11.63l3,.62,4.21.9c2.8.61,5.61,1.23,8.4,1.86q10.59,2.4,21.09,5.07l3.91,1,4.51,1.18c2.06.54,4.11,1.1,6.17,1.66l3.68,1c3.38.94,6.75,1.89,10.11,2.88q2.67.77,5.33,1.56l3.09.93,4.06,1.24,4.07,1.26,5.06,1.6q3.06,1,6.12,2c1.22.39,2.43.8,3.65,1.21l.33.11,3.67,1.23,1.36.46q4.16,1.41,8.29,2.87,3.1,1.1,6.18,2.2l4.93,1.8c2,.74,4,1.49,6,2.25l4.72,1.79q5.37,2.05,10.7,4.18l6.67,2.69c1.31.53,2.61,1.07,3.9,1.61l3.89,1.62c.74.31,1.49.62,2.22.94l2.22.94,3.32,1.42q3.2,1.38,6.38,2.79l5.18,2.3,3.82,1.73.18.08,3.35,1.54,3.71,1.72,4.77,2.24,3.9,1.86,6.41,3.1q4,2,8,4,3.45,1.74,6.9,3.52l1.79.92q3.1,1.61,6.2,3.24V226.18Q1378.55,214.66,1355.75,204.44Zm139.83,78.88-3.31-2.29q-2.56-1.75-5.14-3.5-21.73-14.68-44.38-28.06v14c2.83,1.71,5.65,3.42,8.45,5.16q3.18,2,6.34,4l3.16,2,1.57,1,1.58,1q2.46,1.58,4.91,3.18,2,1.3,4,2.64l3.19,2.11q2.22,1.47,4.43,3,2,1.32,3.91,2.66l1.87,1.27,1.44,1h0c1.43,1,2.85,2,4.27,3s2.67,1.86,4,2.8q6,4.23,11.87,8.56V291.91Q1501.7,287.56,1495.58,283.32Zm11.6,1410.33c-1.5,1.1-3,2.2-4.52,3.28-2.07,1.5-4.16,3-6.25,4.47-1.5,1.07-3,2.14-4.52,3.19l-2.77,1.93-4.68,3.22-4.69,3.19-.72.49-3.28,2.2-4.35,2.87-3.32,2.17-.52.34-4.05,2.61q-3.77,2.41-7.55,4.79-2.76,1.74-5.55,3.45c-1.23.76-2.46,1.52-3.7,2.27l-4,2.4v14q22.62-13.37,44.38-28.06,10.41-7,20.62-14.38v-14.82Zm215.27-1180.8a877.38,877.38,0,0,0-63.7-83.07v18.49c.4.47.8.94,1.19,1.42s.55.65.81,1c.8,1,1.59,1.91,2.38,2.86l1.62,2,1.4,1.71,2.32,2.85q5.2,6.42,10.28,13l.19.25,1.78,2.3,2,2.64q2,2.63,4,5.27c1.55,2.06,3.1,4.13,4.63,6.21q1.4,1.86,2.74,3.73l.63.86,1.14,1.56,1,1.32,1.39,2c.82,1.13,1.62,2.26,2.43,3.39q1.5,2.1,3,4.21t3,4.22q2.94,4.23,5.82,8.5l2.94,4.37q4.26,6.39,8.4,12.86V514.79C1723.32,514.14,1722.89,513.49,1722.45,512.85Zm0,952.41c-.57.9-1.15,1.79-1.74,2.68l-.55.85-1.2,1.84-.51.77c-.58.88-1.15,1.76-1.74,2.64l-1.16,1.74c-.61.92-1.22,1.84-1.84,2.75-.4.61-.81,1.21-1.22,1.82q-1.38,2.05-2.78,4.09c-.63.93-1.27,1.86-1.91,2.78q-1.61,2.33-3.22,4.63c-.73,1-1.46,2.09-2.21,3.13l-1.22,1.74-.41.58c-.4.56-.79,1.12-1.2,1.68-1,1.36-1.94,2.71-2.92,4.06q-2,2.77-4,5.54-1,1.38-2,2.76c-1.61,2.18-3.23,4.35-4.88,6.51h0l0,0,0,.05-.11.16c-.44.59-.88,1.18-1.33,1.76-.76,1-1.54,2-2.32,3q-3,3.93-6.07,7.81l-2,2.58-3.66,4.58-.34.42c-1.19,1.48-2.38,2.95-3.59,4.42q-3.67,4.52-7.41,9v18.49a876.92,876.92,0,0,0,55.53-71.2q2.13-3,4.21-6.07c.76-1.1,1.52-2.2,2.26-3.31l1.7-2.49,0-.06c.43-.62.84-1.25,1.26-1.88v-21.85Zm131.06-640.85a867,867,0,0,0-50.77-163.56c-11.05-26.11-23.42-51.76-37-76.76v25.7q1.39,2.75,2.78,5.5t2.75,5.52q1.32,2.69,2.63,5.39a3.26,3.26,0,0,1,.18.38q1.29,2.67,2.56,5.35,2.65,5.56,5.22,11.2t5,11.2l1.12,2.56c.1.22.19.45.29.67.47,1.08.94,2.16,1.4,3.24,0,0,0,0,0,0,.46,1,.91,2.11,1.36,3.17q1.59,3.75,3.15,7.5,1.19,2.87,2.35,5.74l2.31,5.76q1.14,2.88,2.27,5.78t2.23,5.8q1.11,2.91,2.19,5.82t2.15,5.84l.15.41c.68,1.88,1.35,3.77,2,5.65s1.33,3.78,2,5.68q2,5.88,4,11.81,1,3,1.94,5.94t1.9,6q.93,3,1.85,6,1.11,3.59,2.17,7.18.72,2.41,1.42,4.83l.27.92q.73,2.55,1.46,5.11c.53,1.85,1,3.7,1.55,5.56q.62,2.21,1.2,4.41c.09.32.18.64.26,1,.21.76.41,1.52.61,2.28s.49,1.83.72,2.74c.39,1.48.78,3,1.16,4.47s.77,3,1.16,4.56c.46,1.84.92,3.69,1.36,5.54s.93,3.82,1.38,5.73.91,3.9,1.35,5.85q.6,2.59,1.17,5.19c0,.11,0,.22.07.33.43,1.87.83,3.75,1.23,5.63a.32.32,0,0,1,0,.14c.3,1.38.59,2.77.88,4.16.18.82.35,1.64.51,2.45q.58,2.8,1.14,5.63.62,3.06,1.2,6.14c.27,1.41.54,2.83.8,4.24s.52,2.79.77,4.19c.42,2.32.83,4.63,1.23,7q.5,2.82,1,5.65c0,.15.05.29.07.44.24,1.44.48,2.89.7,4.33q.39,2.39.75,4.77c.3,1.93.59,3.87.88,5.8q.63,4.27,1.21,8.58c.19,1.38.38,2.77.56,4.16s.36,2.79.54,4.18c.13,1,.26,2,.38,3,.06.51.13,1,.19,1.54.12,1,.22,1.93.34,2.89q.45,3.72.85,7.46l.42,4q.55,5.16,1,10.35.28,3,.54,6,.33,3.81.61,7.63.14,1.58.24,3.15c.09,1.29.19,2.59.27,3.88s.19,2.72.27,4.07c.07,1,.13,2.09.19,3.13.11,1.76.21,3.52.3,5.29.05.75.08,1.5.12,2.24l.15,3c0,.17,0,.35,0,.52.06,1.29.12,2.57.17,3.86.08,1.65.15,3.31.2,5,.06,1.48.11,3,.15,4.45,0,1.29.09,2.57.12,3.86q.26,9.09.31,18.22c0,1.9,0,3.81,0,5.71s0,3.75,0,5.62q0,4.16-.09,8.29c0,1.23,0,2.45-.07,3.68s-.05,2.45-.08,3.67c-.05,2.18-.11,4.37-.18,6.55,0,1.32-.09,2.64-.14,4-.06,1.75-.13,3.49-.21,5.24q-.06,1.69-.15,3.39c-.08,1.71-.16,3.42-.25,5.13q-.17,3.22-.36,6.43c0,.6-.07,1.21-.11,1.81-.14,2.22-.28,4.44-.44,6.66-.12,1.81-.25,3.61-.39,5.41-.06.83-.13,1.67-.19,2.5-.26,3.28-.53,6.54-.83,9.79-.19,2.14-.39,4.29-.6,6.43s-.43,4.27-.65,6.41-.44,4.1-.67,6.15q-.51,4.59-1.09,9.17c-.21,1.72-.42,3.43-.64,5.14l-.57,4.32c-.21,1.55-.42,3.09-.64,4.63-.13,1-.27,2-.42,3-.19,1.32-.38,2.64-.58,4q-.42,2.82-.86,5.64t-.89,5.62c-.19,1.16-.37,2.31-.57,3.46-.33,2-.67,4-1,6s-.69,3.92-1,5.87q-.6,3.34-1.24,6.68-.54,2.9-1.11,5.77l-.3,1.55-1.14,5.66q-.58,2.82-1.18,5.64c-.44,2.07-.88,4.13-1.34,6.18s-.89,4-1.34,6-.92,4-1.39,6c-.5,2.16-1,4.31-1.54,6.45-.34,1.4-.69,2.79-1,4.18s-.63,2.52-1,3.78c-.36,1.42-.72,2.84-1.09,4.26-.26,1-.52,2-.79,3-.54,2.07-1.1,4.13-1.65,6.18q-.75,2.74-1.51,5.49c-.33,1.16-.65,2.32-1,3.49-.06.2-.11.4-.17.6-.44,1.58-.9,3.16-1.35,4.72s-.89,3-1.34,4.56-1,3.29-1.47,4.92-1,3.28-1.5,4.91c-.39,1.27-.79,2.55-1.19,3.82s-.75,2.38-1.13,3.55a.14.14,0,0,1,0,.07l-.06.19-.84,2.62c-.64,2-1.3,4-2,6-.26.8-.52,1.6-.79,2.39q-1.21,3.65-2.47,7.26c-.66,1.94-1.34,3.88-2,5.81q-1.43,4-2.88,8c-.48,1.34-1,2.68-1.47,4q-1.42,3.88-2.9,7.74-1,2.61-2,5.2-2.37,6.12-4.84,12.19c-.53,1.32-1.07,2.63-1.61,3.94-.33.82-.67,1.64-1,2.45-.57,1.38-1.14,2.74-1.72,4.11-.4,1-.8,1.9-1.21,2.85s-.81,1.9-1.22,2.85h0c-.4.94-.8,1.87-1.21,2.81-.92,2.12-1.85,4.25-2.79,6.36-.31.71-.63,1.41-.94,2.11q-.59,1.32-1.2,2.64c-.57,1.29-1.15,2.57-1.74,3.85a1,1,0,0,1-.07.15c-.19.42-.37.83-.57,1.25s-.44.94-.65,1.41c-.93,2-1.88,4.05-2.83,6.07-.37.77-.73,1.55-1.1,2.32-.93,2-1.87,3.92-2.82,5.88q-1.26,2.63-2.55,5.23c-.49,1-1,2-1.49,3l-1.26,2.52q-1.37,2.76-2.78,5.5v25.71c13.61-25,26-50.65,37-76.76q8.59-20.34,16.17-41.13,4.05-11.14,7.8-22.42a865.57,865.57,0,0,0,26.8-100,879.61,879.61,0,0,0,0-351.14Zm-237.48-440.5a875,875,0,0,0-66.32-59.85V339.6q4.39,3.63,8.73,7.36l4.33,3.73q3,2.58,5.94,5.2c1.54,1.35,3.07,2.72,4.59,4.08l.41.37c1,.91,2,1.84,3.06,2.76l.94.86c1.44,1.3,2.87,2.62,4.3,3.94.82.74,1.63,1.49,2.44,2.25l2.51,2.34,2.49,2.34,4.22,4c1.12,1.06,2.23,2.12,3.33,3.2.56.53,1.11,1.07,1.66,1.61l.79.77,2.85,2.79,1.31,1.29,4.1,4.07.33.33c1.47,1.47,2.93,2.94,4.39,4.43l3.28,3.36.49.5.51.53V384.6Zm-3.31,1218.42c-.72.74-1.44,1.47-2.17,2.2l-1.85,1.86c-1,1-2,2-3,3s-2,2-3,3l-1,1-3.87,3.77c-1.81,1.76-3.64,3.52-5.47,5.26l-4.15,3.92q-2.09,2-4.18,3.9t-4.2,3.87l-.32.3-3.91,3.54q-2.12,1.92-4.25,3.82l-4.25,3.76a1.14,1.14,0,0,1-.17.15l-4.48,3.91-1,.84c-1,.88-2,1.76-3.05,2.62l-1.45,1.24-2.9,2.46-4.38,3.67v15.54q8.79-7.14,17.38-14.52c1-.87,2-1.74,3-2.63q16.14-14,31.58-28.72,2-1.91,4-3.84,5.2-5,10.32-10.14l.68-.69v-17.12Q1614.77,1600.3,1612.76,1602.33Zm-217.13,160.59q-7.68,4-15.45,7.83c-2.31,1.14-4.61,2.27-6.93,3.38h0l-.87.42-2.61,1.25-.49.23c-1.36.65-2.71,1.3-4.08,1.93q-3.6,1.7-7.22,3.36-7.24,3.33-14.55,6.51-3.54,1.55-7.09,3.06-2.94,1.26-5.91,2.49c-1.23.52-2.45,1-3.68,1.52l-.79.33-3.21,1.31-2.17.88-4.31,1.72-1.89.74c-1.36.54-2.71,1.07-4.08,1.59l-.69.27-1.6.62-4.6,1.75-3,1.14q-2.55,1-5.1,1.89-5.52,2-11.09,4l-6.21,2.15-5.43,1.84q-3.31,1.11-6.66,2.19t-6.68,2.14q-2.92.93-5.87,1.83-7.74,2.4-15.53,4.63l-5.54,1.57-7.41,2q-3.7,1-7.44,2-4.42,1.16-8.86,2.25-3,.77-6.09,1.5l-3.16.76-5,1.16-4.7,1.07q-3.84.87-7.7,1.7-2.74.6-5.51,1.17l-4.94,1h0q-2.46,1.13-5,2.2a188.85,188.85,0,0,1-47.23,18.42q-1.48.39-3,.75l-.33.08.33,0,3-.41q28.38-3.87,56.32-9.59a867.48,867.48,0,0,0,147.18-44l4-1.61q6.21-2.5,12.38-5.12,15.29-6.47,30.34-13.54c1.33-.61,2.65-1.24,4-1.88q13.77-6.52,27.31-13.56v-13.54Q1398.2,1761.59,1395.63,1762.92Zm-596.79,73.15h0l-1.6-.91q-4.69-1.14-9.36-2.32c-1.71-.44-3.41-.87-5.11-1.32s-3.41-.88-5.1-1.34l-5.09-1.38q-5.09-1.4-10.14-2.84c-1.69-.49-3.37-1-5-1.47q-5-1.48-10.06-3c-1.67-.52-3.34-1-5-1.56l-4.6-1.45-1.16-.38c-1.41-.44-2.82-.9-4.22-1.37q-5-1.62-9.93-3.32l-5.51-1.9q-7.08-2.48-14.12-5.06l-.18-.07c-1.6-.58-3.19-1.18-4.78-1.78s-3.25-1.22-4.87-1.85-3.24-1.24-4.86-1.88-3.23-1.25-4.85-1.9q-4.83-1.92-9.65-3.9l-4.8-2-4.79-2c-2.39-1-4.77-2-7.15-3.08q-7.14-3.12-14.21-6.35c-2.35-1.08-4.71-2.17-7-3.27q-7-3.29-14-6.72-2.32-1.12-4.64-2.3t-4.62-2.32q-6.91-3.5-13.76-7.13-2.28-1.19-4.56-2.43t-4.54-2.45q-4.66-2.55-9.3-5.14c-2.9-1.64-5.8-3.28-8.69-5l-4.45-2.58q-4.44-2.59-8.86-5.25l-4.41-2.67c-1.47-.89-2.93-1.78-4.38-2.69q-4.38-2.7-8.73-5.45T532,1720.7l-4.3-2.81L523.4,1715q-4.28-2.85-8.51-5.75-10.44-7.17-20.68-14.62l-.27-.2q-4-3-8-5.94-6.8-5.09-13.49-10.3l-3-2.34q-24.3-19.09-47.16-39.88-1.91-1.73-3.8-3.48t-3.79-3.5q-3.6-3.36-7.17-6.76t-7.37-7.1c-.9-.88-1.8-1.75-2.69-2.64q-6-5.85-11.8-11.83l-3.57-3.67c-1.18-1.23-2.37-2.46-3.54-3.69q-17.69-18.51-34.25-38c-1.06-1.25-2.11-2.49-3.16-3.75q-8.29-9.9-16.3-20.05l-2.32-3-1.66-2.13-3.05-3.94q-9-11.73-17.59-23.78l-3-4.18q-1.48-2.1-2.95-4.21l-2.43-3.52c-1.14-1.64-2.26-3.29-3.38-4.94l-2.87-4.26q-1.44-2.13-2.85-4.28t-2.82-4.29l-2.69-4.13a1.66,1.66,0,0,0-.18-.28l-2.6-4.07-1.77-2.8c-.71-1.12-1.41-2.24-2.11-3.37q-1.28-2-2.53-4.07l-1.92-3.13q-1.3-2.14-2.6-4.29l-2.37-4-1.95-3.3c-.63-1.06-1.25-2.11-1.86-3.17q-1.56-2.67-3.1-5.35l-1.89-3.31q-3.57-6.3-7-12.66-1.11-2-2.21-4.08-2.45-4.55-4.84-9.12c-.73-1.37-1.45-2.75-2.15-4.13q-1.3-2.52-2.59-5.05-1.17-2.31-2.33-4.62t-2.3-4.63q-1.05-2.12-2.08-4.24c-.82-1.68-1.63-3.38-2.44-5.07s-1.49-3.12-2.22-4.68q-3.42-7.25-6.69-14.57c-.65-1.43-1.28-2.86-1.92-4.3s-1.39-3.17-2.08-4.75-1.37-3.18-2.05-4.77c-.6-1.4-1.19-2.79-1.77-4.19q-2.3-5.44-4.52-10.93l-1.53-3.82q-3.63-9.07-7.05-18.27c-.42-1.14-.85-2.28-1.26-3.42l-1.08-3q-.9-2.45-1.77-4.91c-.59-1.64-1.17-3.29-1.74-4.93s-1.15-3.29-1.71-4.94q-1.71-5-3.33-9.92-1-2.9-1.89-5.81c-.45-1.39-.89-2.78-1.33-4.17q-.79-2.51-1.56-5c-.52-1.65-1-3.3-1.52-5,0-.07,0-.14-.07-.22l-1.41-4.73c0-.15-.09-.31-.13-.46-.47-1.58-.93-3.15-1.38-4.73s-1-3.37-1.45-5.06-.95-3.38-1.41-5.07-.93-3.39-1.38-5.09q-1.44-5.31-2.8-10.66l-1.17-4.67q-.65-2.56-1.26-5.13t-1.23-5.15q-.61-2.56-1.2-5.15c-.46-2-.92-4-1.36-6-.32-1.44-.63-2.88-.95-4.33-.37-1.72-.74-3.46-1.1-5.19q-.43-2-.84-4.05c-.28-1.36-.56-2.71-.82-4.07l-.51-2.55-1-5c-.34-1.75-.66-3.49-1-5.24q-1.05-5.67-2-11.39c-.24-1.46-.49-2.92-.73-4.39q-.43-2.64-.85-5.28c-.28-1.76-.56-3.53-.82-5.29s-.53-3.54-.79-5.31c-.22-1.5-.43-3-.64-4.5-.17-1.19-.33-2.37-.49-3.56-.12-.86-.24-1.71-.35-2.58l-.69-5.33c-.19-1.54-.39-3.09-.57-4.64-.11-.91-.22-1.81-.32-2.71-.14-1.12-.26-2.23-.39-3.35q-.59-5.07-1.09-10.15c-.21-2-.4-4-.59-6-.17-1.79-.33-3.59-.49-5.39q-.46-5.17-.85-10.37c-.14-1.82-.28-3.64-.4-5.46q-.57-8.19-1-16.43c-.07-1.37-.14-2.75-.19-4.12q-.93-19.93-.93-40.1t.93-40.09c0-1.38.12-2.75.19-4.13q.42-8.23,1-16.43c.12-1.82.26-3.64.4-5.46q.39-5.19.85-10.37c.16-1.8.32-3.6.49-5.39.19-2,.38-4,.59-6q.51-5.08,1.09-10.15c.12-1.11.25-2.23.39-3.35.1-.9.21-1.8.32-2.71.18-1.55.38-3.1.57-4.64l.69-5.33c.11-.87.23-1.72.35-2.58.16-1.19.32-2.37.49-3.56.21-1.5.42-3,.64-4.5q.39-2.65.79-5.31c.26-1.76.54-3.53.82-5.29s.56-3.52.85-5.28c.24-1.47.49-2.93.73-4.39q1-5.71,2-11.39c.32-1.75.64-3.49,1-5.24l1-5,.51-2.55c.26-1.36.54-2.71.82-4.07s.55-2.7.84-4c.36-1.73.73-3.47,1.1-5.19.32-1.44.63-2.88.95-4.32.44-2,.9-4,1.36-6q.58-2.58,1.2-5.15t1.23-5.15q.61-2.57,1.26-5.13l1.17-4.67q1.36-5.34,2.8-10.66.68-2.55,1.38-5.09t1.41-5.07q.72-2.54,1.45-5.06c.45-1.58.91-3.15,1.38-4.73,0-.15.08-.31.13-.46l1.41-4.73c0-.08,0-.15.07-.22.5-1.66,1-3.31,1.52-5s1-3.34,1.56-5c.44-1.39.88-2.78,1.33-4.17q.93-2.91,1.89-5.81,1.62-5,3.33-9.92.84-2.48,1.71-4.94c.57-1.64,1.15-3.29,1.74-4.93s1.17-3.28,1.77-4.91l1.08-3c.41-1.14.84-2.28,1.26-3.42q3.44-9.19,7.05-18.27l1.53-3.82q2.22-5.49,4.52-10.93c.58-1.4,1.17-2.79,1.77-4.19q1-2.39,2.05-4.77c.69-1.58,1.38-3.17,2.08-4.75s1.27-2.87,1.92-4.3q3.27-7.32,6.69-14.57,1.09-2.34,2.22-4.68c.81-1.69,1.62-3.39,2.44-5.07q1-2.13,2.08-4.24,1.14-2.32,2.3-4.63t2.33-4.62q1.29-2.54,2.59-5,1.05-2.07,2.15-4.13,2.38-4.57,4.84-9.12,1.1-2,2.21-4.08,3.48-6.36,7-12.66l1.89-3.31q1.55-2.69,3.1-5.35c.61-1.06,1.23-2.11,1.86-3.17l1.95-3.3c.79-1.32,1.57-2.64,2.37-4s1.73-2.86,2.6-4.29l1.92-3.13q1.26-2,2.53-4.07c.7-1.13,1.4-2.25,2.11-3.37l1.77-2.8,2.6-4.07a1.67,1.67,0,0,0,.18-.28l2.69-4.13q1.39-2.14,2.82-4.29t2.85-4.28l2.87-4.26c1.12-1.65,2.24-3.3,3.38-4.94l2.43-3.52q1.47-2.12,2.95-4.21l3-4.18q8.59-12,17.59-23.78l3.05-3.94,1.66-2.13,2.32-3q8-10.16,16.3-20c1-1.26,2.1-2.5,3.16-3.75q16.56-19.53,34.25-38c1.17-1.23,2.36-2.46,3.54-3.69l3.57-3.67q5.84-6,11.8-11.83c.89-.89,1.79-1.76,2.69-2.64q3.66-3.57,7.37-7.1t7.17-6.76q1.89-1.76,3.79-3.5t3.8-3.48q22.84-20.76,47.16-39.88l3-2.34q6.69-5.21,13.49-10.3,4-3,8-5.94l.27-.2q10.23-7.46,20.68-14.62,4.24-2.89,8.51-5.75l4.28-2.85,4.3-2.81q4.3-2.8,8.65-5.56t8.73-5.45c1.45-.91,2.91-1.8,4.38-2.69s2.94-1.79,4.41-2.67q4.41-2.65,8.86-5.25l4.45-2.58q4.33-2.5,8.69-4.94,4.63-2.61,9.3-5.15,2.27-1.25,4.54-2.45t4.56-2.43q6.84-3.64,13.76-7.13,2.31-1.18,4.62-2.32t4.64-2.3q7-3.43,14-6.72c2.34-1.1,4.7-2.19,7-3.27q7.07-3.24,14.21-6.35c2.38-1,4.76-2.06,7.15-3.08l4.79-2,4.8-2q4.82-2,9.65-3.9c1.62-.65,3.23-1.28,4.85-1.9s3.24-1.27,4.86-1.88,3.24-1.25,4.87-1.85,3.18-1.2,4.78-1.78l.18-.07q7-2.58,14.12-5.06l5.51-1.9q4.95-1.71,9.93-3.32c1.4-.47,2.81-.93,4.22-1.37l1.16-.38,4.6-1.45c1.67-.53,3.34-1,5-1.56q5-1.55,10.06-3,2.52-.75,5-1.47,5.05-1.45,10.14-2.84l5.09-1.38q2.54-.69,5.1-1.34c1.7-.45,3.4-.88,5.11-1.32q4.66-1.19,9.36-2.32l1.6-.91h0c17.72-9.8,38.87-17.88,62.23-24.13q-18.42,2.94-36.64,6.67a866.53,866.53,0,0,0-311.56,131.1A873.75,873.75,0,0,0,197.22,660.85a867,867,0,0,0-50.77,163.56,879.61,879.61,0,0,0,0,351.14,866.53,866.53,0,0,0,131.1,311.56,873.75,873.75,0,0,0,383.32,315.65,867,867,0,0,0,163.56,50.77q18.21,3.72,36.65,6.67C837.71,1853.95,816.56,1845.87,798.84,1836.07Z"/></svg>